<?xml version="1.0" encoding="utf-8"?>
<!-- Generator: Adobe Illustrator 16.0.0, SVG Export Plug-In . SVG Version: 6.00 Build 0)  -->
<!DOCTYPE svg PUBLIC "-//W3C//DTD SVG 1.1//EN" "http://www.w3.org/Graphics/SVG/1.1/DTD/svg11.dtd">
<svg version="1.1" id="Layer_1" xmlns="http://www.w3.org/2000/svg" xmlns:xlink="http://www.w3.org/1999/xlink" x="0px" y="0px"
	 width="280px" height="108px" viewBox="0 0 280 108" enable-background="new 0 0 280 108" xml:space="preserve">
<rect x="-179.183" y="-347.353" display="none" fill="#EE2A7B" width="631.373" height="809.804"/>
<g>
	<path fill="#FFFFFF" d="M54.309,40.915c0.143-0.863,0.561-1.611,1.25-2.244c-0.057-0.229-0.086-0.547-0.086-0.949
		c0-1.094,0.288-2.102,0.863-3.021c0.575-0.92,0.864-1.899,0.864-2.935c-0.289-0.519-0.647-0.876-1.079-1.079
		c-0.432-0.201-0.907-0.302-1.425-0.302l-0.689,0.085c-0.517,0.232-1.094,0.418-1.726,0.561c-0.634,0.144-1.122,0.36-1.467,0.647
		c-0.577,0-1.052,0.146-1.425,0.432c-0.374,0.288-0.733,0.619-1.079,0.994c-0.345,0.375-0.69,0.719-1.036,1.036
		c-0.346,0.316-0.749,0.503-1.209,0.561c-1.784,1.668-3.797,3.322-6.041,4.962c-2.244,1.64-4.143,3.439-5.697,5.395
		c-1.267,0.865-2.374,1.958-3.324,3.282c-0.949,1.324-2.143,2.561-3.582,3.708c-0.634,0-0.949-0.229-0.949-0.688
		c0-0.404,0.129-0.863,0.388-1.382c0.26-0.518,0.389-1.036,0.389-1.554l-0.086-0.43c0.863-0.806,1.409-1.77,1.64-2.894
		c0.23-1.122,0.575-2.171,1.036-3.15c0.518-0.633,0.949-1.309,1.295-2.029c0.345-0.718,0.69-1.453,1.036-2.2
		c0.345-0.748,0.69-1.48,1.036-2.202c0.345-0.718,0.747-1.423,1.208-2.114c0.172-0.402,0.344-0.863,0.519-1.381
		c0.171-0.518,0.344-0.893,0.518-1.122l0.085-0.604c0.574-0.805,1.107-1.826,1.597-3.065c0.488-1.237,1.136-2.287,1.942-3.151
		c0.057-0.689,0.216-1.293,0.476-1.812c0.258-0.519,0.531-1.023,0.819-1.511c0.288-0.488,0.562-0.979,0.821-1.467
		c0.258-0.488,0.444-1.08,0.561-1.77c0.575-1.036,1.006-1.825,1.295-2.374c0.287-0.545,0.69-1.338,1.208-2.374v-0.086
		c0-0.575,0.142-1.079,0.432-1.509c0.288-0.433,0.617-0.834,0.993-1.21c0.373-0.373,0.703-0.746,0.992-1.122
		C46.957,8.472,47.1,7.999,47.1,7.423V6.992c1.381-1.554,2.445-3.396,3.195-5.524c-0.231-0.229-0.491-0.433-0.777-0.605
		c-0.289-0.172-0.461-0.345-0.519-0.518c-0.402-0.056-0.763-0.128-1.079-0.215C47.603,0.043,47.273,0,46.927,0
		c-0.171,0-0.488,0.058-0.948,0.172c-0.232,0.173-0.505,0.303-0.82,0.388c-0.317,0.087-0.619,0.188-0.907,0.305
		c-0.29,0.115-0.548,0.273-0.777,0.474c-0.231,0.202-0.375,0.474-0.431,0.819c-0.518,0.345-0.937,0.792-1.252,1.338
		c-0.316,0.547-0.603,1.137-0.862,1.771s-0.505,1.266-0.733,1.899c-0.231,0.632-0.518,1.15-0.863,1.553
		c-0.462,1.095-0.864,2.102-1.208,3.021c-0.346,0.921-0.692,1.813-1.036,2.676c-0.346,0.863-0.721,1.77-1.122,2.719
		c-0.404,0.949-0.864,2-1.382,3.152h-0.172c-0.462,1.151-0.979,2.302-1.554,3.451c-0.576,1.152-0.979,2.416-1.208,3.798
		c-0.346,0.404-0.634,0.878-0.864,1.424c-0.23,0.548-0.489,0.966-0.776,1.252c-0.404,0.749-0.72,1.422-0.95,2.029
		c-0.231,0.604-0.431,1.208-0.604,1.812c-0.174,0.605-0.375,1.239-0.604,1.9c-0.232,0.663-0.518,1.423-0.864,2.287
		c-1.036,2.59-2.158,5.194-3.366,7.813c-1.208,2.619-2.072,5.136-2.589,7.551c-0.69,0.98-1.224,2.103-1.598,3.369
		c-0.375,1.264-0.791,2.389-1.251,3.365v0.434c0,0.461-0.087,0.848-0.259,1.162c-0.173,0.318-0.375,0.637-0.605,0.949
		c-0.231,0.316-0.431,0.621-0.604,0.906c-0.172,0.289-0.258,0.635-0.258,1.037c0,0.287,0.086,0.604,0.258,0.949
		c0.403,0.459,0.893,0.691,1.468,0.691c0.402,0,0.777-0.088,1.123-0.26c0.344-0.174,0.718-0.314,1.121-0.432
		c0.346-0.346,0.692-0.648,1.037-0.906c0.345-0.26,0.804-0.477,1.381-0.648c0.691-0.689,1.352-1.482,1.985-2.371
		c0.632-0.893,1.28-1.814,1.942-2.764c0.661-0.949,1.351-1.885,2.07-2.807c0.72-0.916,1.482-1.813,2.289-2.675
		c0.057-0.343,0.215-0.616,0.474-0.819c0.259-0.2,0.531-0.374,0.82-0.517c0.288-0.143,0.531-0.315,0.733-0.518
		c0.201-0.202,0.303-0.533,0.303-0.995c0.863-1.148,1.869-2.313,3.022-3.495c1.149-1.18,2.315-2.272,3.495-3.28
		c1.178-1.005,2.301-1.884,3.366-2.632c1.063-0.747,1.999-1.265,2.806-1.553c0.459,0.289,0.69,0.748,0.69,1.38
		c0,0.635-0.172,1.338-0.518,2.116c-0.345,0.777-0.547,1.453-0.604,2.026c-0.058,0.923-0.317,1.729-0.777,2.418
		c-0.46,0.691-0.69,1.498-0.69,2.418c-0.808,2.187-1.569,4.228-2.288,6.126c-0.719,1.9-1.223,4.145-1.511,6.732
		c-0.115,1.152-0.474,2.492-1.079,4.016c-0.604,1.525-0.906,3.033-0.906,4.531c0,1.266,0.375,2.359,1.122,3.279l0.95-0.52
		c1.092-2.07,2.056-4.287,2.892-6.645c0.833-2.357,1.942-4.572,3.324-6.646c0-0.689,0.157-1.25,0.474-1.682
		c0.314-0.432,0.475-0.934,0.475-1.51c0-0.115-0.059-0.404-0.173-0.863c0.632-0.635,1.193-1.424,1.683-2.375
		c0.488-0.949,0.734-1.856,0.734-2.719c0-0.402-0.03-0.689-0.086-0.862c0.518-0.46,0.92-1.022,1.209-1.685
		c0.287-0.661,0.531-1.336,0.734-2.026c0.201-0.693,0.401-1.383,0.604-2.075c0.201-0.689,0.475-1.321,0.82-1.898
		C53.803,42.584,54.163,41.777,54.309,40.915z"/>
	<path fill="#FFFFFF" d="M82.749,60.781l0.689-0.43c0.864-0.805,1.438-1.666,1.726-2.588c0.288-0.924,0.633-1.873,1.037-2.851
		l-0.949-0.259c-0.807,0.692-1.455,1.237-1.942,1.641c-0.49,0.402-0.951,0.75-1.382,1.035c-0.431,0.287-0.893,0.574-1.381,0.863
		c-0.489,0.289-1.165,0.662-2.028,1.123c-0.635,0.344-1.181,0.59-1.64,0.734c-0.461,0.143-0.979,0.301-1.554,0.473
		c-0.634,0.461-1.165,0.764-1.596,0.906c-0.431,0.145-0.821,0.232-1.166,0.26c-0.345,0.029-0.691,0.057-1.036,0.088
		c-0.344,0.027-0.749,0.156-1.208,0.385c-0.116,0.061-0.289,0.088-0.518,0.088c-0.29,0-0.562-0.027-0.821-0.088
		c-0.258-0.055-0.475-0.084-0.647-0.084c-0.172,0-0.432,0.084-0.776,0.26c-0.057,0-0.145-0.057-0.26-0.176l-0.431-0.084
		c-0.92,0-1.654-0.1-2.201-0.301c-0.548-0.203-1.195-0.447-1.942-0.734c-0.116-0.174-0.172-0.375-0.172-0.605
		s-0.087-0.346-0.259-0.346c-0.75-0.576-1.123-1.094-1.123-1.553c0-0.346,0.157-0.664,0.475-0.949
		c0.315-0.289,0.69-0.564,1.122-0.822c0.432-0.258,0.833-0.518,1.209-0.777c0.374-0.258,0.617-0.531,0.734-0.818
		c0.459-0.115,0.848-0.303,1.165-0.561c0.316-0.259,0.619-0.445,0.907-0.562c0.345,0,0.604-0.1,0.776-0.302
		c0.172-0.2,0.315-0.432,0.432-0.691c0.115-0.259,0.216-0.502,0.302-0.733c0.085-0.23,0.244-0.346,0.475-0.346
		c0.172,0.06,0.402,0.086,0.689,0.086c0.402,0,0.748-0.112,1.036-0.343c0.287-0.23,0.59-0.477,0.906-0.735
		c0.315-0.257,0.632-0.505,0.949-0.735c0.316-0.228,0.704-0.343,1.167-0.343c0.632-0.634,1.436-1.225,2.416-1.77
		c0.978-0.546,1.555-1.195,1.727-1.944c0.574-0.4,1.064-0.748,1.467-1.035c0.401-0.289,0.762-0.589,1.079-0.905
		c0.316-0.316,0.648-0.648,0.993-0.994c0.345-0.345,0.777-0.748,1.295-1.21c0.402-0.458,0.848-1.048,1.338-1.769
		c0.488-0.719,0.935-1.467,1.337-2.244c0.402-0.775,0.734-1.524,0.993-2.244c0.259-0.719,0.389-1.339,0.389-1.855
		c0-0.461-0.087-0.964-0.259-1.511c-0.172-0.546-0.403-0.907-0.691-1.078c-0.288-0.057-0.532-0.13-0.733-0.214
		c-0.203-0.088-0.418-0.131-0.647-0.131c-0.172,0-0.376,0.058-0.604,0.172c-0.115-0.287-0.274-0.459-0.476-0.517
		c-0.201-0.058-0.417-0.086-0.646-0.086c-0.346,0-0.706,0.043-1.079,0.129c-0.376,0.087-0.706,0.13-0.993,0.13l0.173-0.086
		l-1.554,0.086c-0.69,0.058-1.166,0.215-1.425,0.474c-0.258,0.259-0.647,0.39-1.165,0.39c-0.289,0-0.547-0.029-0.777-0.086
		c-0.979,0.345-1.87,0.618-2.676,0.82c-0.807,0.202-1.526,0.678-2.159,1.425c-0.403,0.057-0.72,0.159-0.948,0.303
		c-0.23,0.143-0.446,0.301-0.648,0.473c-0.202,0.173-0.431,0.332-0.689,0.475c-0.259,0.145-0.592,0.214-0.993,0.214
		c-0.69,0.692-1.424,1.225-2.202,1.598c-0.777,0.376-1.597,0.85-2.459,1.424c-1.324,1.612-2.72,3.208-4.187,4.789
		c-1.467,1.584-2.576,3.295-3.323,5.136c-0.862,0.576-1.439,1.54-1.726,2.893c-0.289,1.353-0.691,2.575-1.209,3.667
		c0,0.921,0.015,1.857,0.043,2.806c0.028,0.951,0.13,1.855,0.302,2.717c0.172,0.863,0.432,1.672,0.777,2.42
		c0.345,0.746,0.833,1.352,1.467,1.811c0.345,0.117,0.661,0.318,0.949,0.605c0.288,0.289,0.605,0.592,0.949,0.908
		c0.345,0.314,0.704,0.588,1.079,0.82c0.374,0.229,0.82,0.344,1.339,0.344c0.286,0,0.518-0.029,0.69-0.086
		c0,0.52,0.215,0.82,0.647,0.904c0.432,0.086,0.762,0.246,0.993,0.477h4.488l0.777-0.174c0.633-0.117,1.323-0.176,2.072-0.176
		c0.747,0,1.265-0.229,1.554-0.689c1.035,0,1.812-0.141,2.33-0.432c0.518-0.287,1.094-0.518,1.727-0.689
		c0.864-0.518,1.641-0.977,2.331-1.381c0.691-0.402,1.366-0.791,2.029-1.166c0.66-0.375,1.294-0.805,1.898-1.295
		C81.497,62.066,82.114,61.475,82.749,60.781z M60.479,51.72c-0.058-0.057-0.144-0.087-0.258-0.087
		c-0.231,0-0.446,0.117-0.647,0.345c-0.204,0.231-0.447,0.344-0.734,0.344c-0.173,0-0.375-0.086-0.604-0.258
		c0-0.747,0.202-1.424,0.604-2.028c0.402-0.605,0.661-1.221,0.777-1.855c0.805-0.576,1.523-1.296,2.158-2.158
		c0.632-0.863,1.352-1.522,2.158-1.985c0.229-0.747,0.647-1.31,1.252-1.683c0.604-0.375,1.25-0.691,1.942-0.95
		c0.69-0.258,1.338-0.545,1.942-0.863c0.604-0.315,1.08-0.82,1.424-1.512c0.402,0.173,0.776,0.259,1.122,0.259
		c0.346,0,0.648-0.086,0.907-0.259c0.258-0.172,0.518-0.344,0.777-0.518c0.258-0.172,0.53-0.344,0.82-0.518
		c0.286-0.172,0.63-0.259,1.035-0.259l0.432,0.087c0.229-0.229,0.575-0.374,1.036-0.433c0.46-0.056,0.95-0.085,1.466-0.085h2.246
		c0.287,0.058,0.431,0.288,0.431,0.689c0,0.518-0.116,1.036-0.345,1.554c-1.094,1.498-2.46,2.734-4.1,3.711
		c-1.64,0.978-3.151,2.014-4.532,3.106c-0.635,0.174-1.181,0.419-1.64,0.735c-0.462,0.317-0.937,0.647-1.425,0.992
		c-0.491,0.345-0.993,0.678-1.511,0.994c-0.519,0.316-1.152,0.505-1.898,0.562l-2.417,0.95c-0.289,0.288-0.547,0.491-0.777,0.602
		c-0.229,0.118-0.489,0.233-0.777,0.346C61.053,51.664,60.766,51.72,60.479,51.72z"/>
	<path fill="#FFFFFF" d="M83.669,73.928c0.432-0.773,0.851-1.48,1.251-2.113c0.288-0.922,0.662-1.799,1.123-2.631
		c0.459-0.834,0.919-1.654,1.381-2.457c0.459-0.809,0.862-1.627,1.209-2.463c0.345-0.832,0.573-1.711,0.689-2.631
		c0.519-0.463,0.893-0.936,1.122-1.424c0.229-0.488,0.433-0.996,0.604-1.512c0.173-0.518,0.374-1.051,0.605-1.596
		c0.228-0.547,0.574-1.08,1.036-1.598c0.115-1.208,0.475-2.245,1.079-3.108c0.604-0.864,1.165-1.783,1.683-2.761
		c0.115-0.69,0.244-1.193,0.387-1.511c0.144-0.314,0.289-0.574,0.433-0.777c0.144-0.199,0.259-0.4,0.345-0.604
		c0.086-0.201,0.129-0.561,0.129-1.079v-0.69c0.978-1.151,1.74-2.432,2.287-3.842c0.547-1.41,1.224-2.833,2.03-4.272
		c0.287-0.634,0.502-1.265,0.646-1.899c0.143-0.634,0.389-1.266,0.734-1.899c0.345-0.114,0.574-0.315,0.691-0.605
		c0.114-0.287,0.201-0.606,0.258-0.949c0.057-0.344,0.114-0.676,0.173-0.992c0.057-0.316,0.143-0.59,0.259-0.822
		c0.633-0.344,1.108-0.919,1.425-1.725c0.314-0.806,0.53-1.611,0.648-2.417c0.459-0.403,0.934-1.136,1.423-2.202
		c0.49-1.064,0.964-2.187,1.423-3.367c0.46-1.179,0.936-2.286,1.425-3.322c0.488-1.036,0.963-1.755,1.425-2.159
		c0-0.287,0.158-0.776,0.474-1.466c0.315-0.691,0.648-1.453,0.993-2.288c0.345-0.833,0.675-1.653,0.994-2.459
		c0.316-0.805,0.475-1.495,0.475-2.074c0.689-0.459,1.236-1.164,1.641-2.114c0.4-0.947,0.689-1.824,0.862-2.631l-0.777-0.173
		c-0.231-0.057-0.446-0.086-0.646-0.086c-0.203,0-0.39,0-0.562,0c-0.921,0-1.67,0.145-2.244,0.431
		c-0.576,0.289-1.267,0.547-2.071,0.776c-0.635,0.462-1.295,0.749-1.987,0.863c-0.689,0.117-1.366,0.246-2.026,0.39
		c-0.664,0.145-1.269,0.36-1.814,0.646c-0.548,0.289-0.963,0.777-1.252,1.468c0.289,0.404,0.605,0.633,0.951,0.691
		c0.344,0.057,0.863,0.085,1.553,0.085c0.229,0,0.359,0.116,0.389,0.346c0.028,0.229,0.129,0.344,0.301,0.344
		c0.115,0,0.201,0.03,0.26,0.088c0,0.458-0.203,0.964-0.604,1.509c-0.403,0.547-0.662,1.137-0.777,1.769
		c-0.462,1.209-1.036,2.664-1.727,4.36c-0.69,1.699-1.411,3.453-2.158,5.265c-0.75,1.813-1.497,3.57-2.245,5.266
		c-0.748,1.698-1.41,3.15-1.984,4.359c-0.174,1.265-0.534,2.359-1.079,3.279c-0.548,0.921-0.964,2.015-1.252,3.28
		c-0.634,0.807-1.036,1.626-1.208,2.46c-0.173,0.835-0.548,1.655-1.122,2.462c-0.232,0.805-0.418,1.422-0.562,1.854
		c-0.145,0.433-0.273,0.835-0.389,1.208c-0.117,0.376-0.216,0.793-0.302,1.253c-0.085,0.462-0.216,1.093-0.388,1.9
		c-1.381,2.473-2.534,5.004-3.453,7.594c-0.863,2.59-1.828,5.094-2.892,7.51c-1.064,2.416-1.798,5.006-2.201,7.768
		c-0.345,0.346-0.574,0.717-0.691,1.123c-0.114,0.4-0.185,0.82-0.215,1.252c-0.029,0.432-0.044,0.861-0.044,1.295
		c0,0.43-0.055,0.818-0.17,1.164C82.564,75.152,83.239,74.707,83.669,73.928z"/>
	<path fill="#FFFFFF" d="M147.685,15.581c0.66,0.375,1.395,0.562,2.199,0.562c0.461,0,0.952-0.086,1.47-0.259
		c0.229-0.287,0.53-0.475,0.905-0.561c0.374-0.087,0.79-0.131,1.252-0.131l1.985,0.086c0.46,0,0.806-0.028,1.034-0.086
		c0.231-0.288,0.693-0.432,1.382-0.432h3.972c1.034-0.344,2.171-0.546,3.408-0.604c1.236-0.058,2.474-0.101,3.713-0.13
		c1.235-0.027,2.43-0.086,3.581-0.173c1.149-0.088,2.158-0.272,3.021-0.561c0.175-0.46,0.547-0.691,1.123-0.691
		c0.4,0,0.806,0.059,1.207,0.172c0.403,0.116,0.833,0.172,1.295,0.172c-0.115,0.116-0.201,0.173-0.259,0.173
		c0.115,0,0.201,0.017,0.259,0.044c0.058,0.029,0.145,0.043,0.261,0.043c0.518,0,0.978-0.1,1.379-0.303
		c0.401-0.2,0.894-0.358,1.47-0.473c0.229-0.346,0.572-0.519,1.034-0.519l1.985,0.173c0.573,0,1.004-0.114,1.295-0.345
		c0.229,0.115,0.572,0.171,1.034,0.171c0.748,0,1.438-0.156,2.07-0.473c0.635-0.314,1.354-0.473,2.159-0.473
		c0.575,0,1.093,0.115,1.554,0.343c0.346-0.287,0.733-0.503,1.165-0.646s0.82-0.287,1.167-0.432
		c0.344-0.143,0.646-0.315,0.902-0.518c0.261-0.202,0.42-0.531,0.479-0.993c-0.636-0.403-1.355-0.618-2.159-0.647
		c-0.809-0.027-1.584-0.1-2.332-0.215V7.685c-2.187-0.114-4.271-0.202-6.258-0.259c-1.986-0.056-4.014-0.143-6.085-0.258
		l0.173-0.259h-1.381c-0.634,0-0.979,0.145-1.037,0.43c-0.229-0.055-0.46-0.07-0.69-0.043c-0.229,0.031-0.46-0.042-0.689-0.215
		l0.259-0.171h-14.673l-0.519,0.344c0.056,0-0.029-0.057-0.26-0.173l0.172-0.173h-0.862v0.345l-1.468-0.087
		c-1.035-0.055-2.07-0.029-3.106,0.087c-1.034,0.116-2.044,0.202-3.021,0.259c-0.346,0.116-0.677,0.318-0.991,0.604
		c-0.317,0.289-0.767,0.433-1.338,0.433l-0.434,0.259c-0.979,0.575-1.899,1.265-2.763,2.071c-0.863,0.807-1.293,1.871-1.293,3.193
		C146.604,14.705,147.021,15.207,147.685,15.581z"/>
	<path fill="#FFFFFF" d="M234.854,42.513c0-0.546,0.145-1.049,0.431-1.512c0.119-0.401,0.219-0.789,0.305-1.165
		c0.087-0.375,0.129-0.735,0.129-1.078c0-0.634-0.258-1.095-0.775-1.383c0.056-0.459,0.113-0.646,0.172-0.56
		c0.057,0.084,0.145-0.015,0.259-0.303c0.114-0.287,0.187-0.532,0.216-0.734c0.028-0.201,0.058-0.374,0.087-0.519
		c0.029-0.143,0.042-0.185,0.042-0.128c0.059-0.116,0.087-0.403,0.087-0.864c0-0.402-0.058-0.778-0.173-1.123
		c-0.115-0.344-0.345-0.574-0.689-0.69c-0.346-0.115-0.636-0.173-0.865-0.173c-0.286,0-0.573,0.044-0.863,0.129
		c-0.288,0.086-1.831-1.164-1.932-1.053c0.021-0.32-0.504,0.349-0.791-0.112c-0.172-0.401-0.418-0.691-0.734-0.863
		c-0.317-0.173-0.661-0.288-1.034-0.345c-0.378-0.057-0.765-0.1-1.164-0.128c-0.406-0.03-0.779-0.158-1.125-0.389
		c-2.013,0.289-3.726,0.82-5.136,1.597c-1.411,0.776-2.891,1.654-4.443,2.631l0.173,0.173c-1.786,1.096-3.396,2.331-4.835,3.712
		c-1.438,1.38-2.907,2.82-4.402,4.315l-1.292,1.296c-0.348,0.287-0.605,0.703-0.777,1.25c-0.173,0.548-0.549,0.82-1.124,0.82
		c-0.748,0.922-1.524,1.973-2.33,3.152c-0.806,1.18-1.523,2.446-2.158,3.797c-0.635,1.354-1.163,2.748-1.595,4.189
		c-0.435,1.438-0.647,2.875-0.647,4.314c0,1.553,0.288,2.99,0.863,4.316c0.114,0.113,0.258,0.17,0.431,0.17l0.605-0.084
		c0.343,0,0.516,0.172,0.516,0.518c0.346,0.057,0.675,0.102,0.992,0.129c0.317,0.031,0.617,0.045,0.909,0.045
		c0.802,0,1.538-0.088,2.2-0.258c0.661-0.176,1.322-0.391,1.986-0.648c0.659-0.262,1.337-0.533,2.026-0.82
		c0.69-0.287,1.438-0.545,2.245-0.777c0.861-0.461,1.683-0.979,2.46-1.555c0.776-0.57,1.252-1.18,1.422-1.811
		c0.692-0.059,1.367-0.291,2.029-0.691c0.663-0.4,1.339-0.863,2.027-1.383c0.692-0.516,1.367-1.049,2.03-1.596
		c0.661-0.545,1.337-1.049,2.026-1.509c0.175-0.575,0.446-1.049,0.82-1.425c0.376-0.374,0.766-0.721,1.166-1.037
		c0.403-0.315,0.805-0.646,1.208-0.99c0.4-0.348,0.692-0.778,0.866-1.296c0.633-0.56,0.456-0.328,0.981-0.937
		c-0.453,0.562-0.154,0.284-0.332,0.807c-0.405,1.18-0.635,2.432-0.69,3.754c-1.154,2.302-2.174,4.705-3.065,7.207
		c-0.89,2.504-1.742,4.85-2.545,7.037c-0.117-0.115-0.202-0.174-0.258-0.174c-0.635,1.494-1.252,2.934-1.856,4.314
		c-0.604,1.383-1.396,2.793-2.374,4.23c-0.518,0.807-1.135,1.695-1.858,2.674c-0.718,0.98-1.249,1.988-1.593,3.025
		c-0.81,0.516-1.57,1.307-2.289,2.371s-1.481,2.084-2.285,3.062c-1.154,1.783-2.606,3.109-4.362,3.975
		c-1.753,0.863-3.465,1.723-5.135,2.588c-0.688,0.115-1.396,0.215-2.114,0.305c-0.719,0.084-1.452,0.129-2.2,0.129
		c-1.037,0-2.015-0.088-2.936-0.262c-0.056-0.285-0.201-0.459-0.431-0.518c-0.23-0.057-0.434-0.145-0.605-0.258
		c-0.228-0.23-0.458-0.348-0.69-0.348c-0.287,0-0.545,0.232-0.776,0.691c-0.115,0.23-0.172,0.432-0.172,0.605
		c0.287,1.035,0.688,1.943,1.207,2.719c0.519,0.777,1.354,1.395,2.503,1.855l-0.086,0.174l1.554,0.689l0.433-0.518
		c0.343,0.176,0.603,0.305,0.774,0.391c0.174,0.084,0.316,0.273,0.434,0.561c0.283,0.057,0.634,0.113,1.033,0.172
		c0.405,0.057,0.807,0.088,1.208,0.088c0.692,0,1.18-0.117,1.47-0.348c1.437-0.287,2.702-0.789,3.796-1.508
		c1.094-0.721,2.215-1.396,3.367-2.029c0.573-0.404,1.224-0.979,1.942-1.727c0.719-0.746,1.425-1.555,2.114-2.418
		c0.692-0.863,1.354-1.727,1.984-2.59c0.632-0.863,1.18-1.639,1.643-2.328c0.518-0.691,1.035-1.457,1.554-2.287
		c0.518-0.836,0.831-1.688,0.949-2.549c1.151-0.92,2.084-2.113,2.804-3.58c0.722-1.467,1.541-2.834,2.461-4.1
		c0.058-0.061,0.086-0.176,0.086-0.346l-0.174-1.295c0-0.578,0.345-0.863,1.037-0.863c0.286-0.059,0.488-0.303,0.604-0.734
		c0.117-0.434,0.315-0.734,0.605-0.904c0.864-2.016,1.781-3.986,2.762-5.914c0.978-1.928,1.697-3.842,2.157-5.74
		c0.746-1.092,1.354-2.287,1.813-3.58c0.461-1.296,0.849-2.604,1.164-3.928c0.316-1.323,0.633-2.647,0.949-3.971
		s0.705-2.559,1.165-3.711C234.71,43.564,234.854,43.059,234.854,42.513z M226.092,42.986c-0.345,0.689-0.777,1.325-1.295,1.899
		c-0.519,0.576-1.065,1.138-1.64,1.682c-0.573,0.548-1.093,1.198-1.553,1.944c-0.577,0.057-1.066,0.245-1.47,0.562
		c-0.402,0.317-0.791,0.661-1.163,1.035c-0.376,0.376-0.764,0.75-1.168,1.123c-0.401,0.376-0.861,0.647-1.378,0.818
		c-0.808,0.693-1.931,1.484-3.367,2.375c-1.439,0.895-2.649,1.627-3.626,2.2c-0.807,0.117-1.523,0.318-2.158,0.605
		c-0.634,0.291-1.324,0.549-2.07,0.777c-0.289,0-0.519-0.027-0.691-0.086c-0.171-0.057-0.633-0.26-1.382-0.602v-0.607
		c0-1.438,0.344-2.849,1.036-4.23c0.69-1.379,1.495-2.446,2.416-3.192c0.287-0.634,0.662-1.195,1.124-1.685
		c0.459-0.489,0.934-0.948,1.421-1.38c0.489-0.431,0.937-0.876,1.338-1.338c0.404-0.458,0.692-1.006,0.864-1.64
		c0.23,0.115,0.375,0.173,0.433,0.173c0.287,0,0.546-0.187,0.776-0.562c0.23-0.373,0.545-0.561,0.95-0.561
		c0.345-0.519,0.892-0.963,1.64-1.338c0.747-0.373,1.438-0.702,2.071-0.992c0.29-0.572,0.649-0.949,1.08-1.123
		c0.433-0.173,0.875-0.302,1.338-0.389c0.46-0.086,0.906-0.186,1.337-0.301c0.433-0.114,0.763-0.433,0.993-0.951
		c0.46,0,0.979,0.145,1.555,0.432c0.402-0.288,0.775-0.432,1.121-0.432c0.287,0,0.548,0.087,0.778,0.259
		c0.229,0.173,0.517,0.403,0.863,0.692c0.17,0.114,0.258,0.343,0.258,0.689l-0.088,0.865l0.174,0.774
		C226.609,41.462,226.436,42.295,226.092,42.986z"/>
	<path fill="#FFFFFF" d="M268.577,45.732l0.022-3.015l-0.354-2.714c0.113-0.815,0.008-1.534-0.776-1.949l-2.61-4.167
		c-1.079-1.047-2.647-1.787-4.678-2.229l-1.538-0.155c-0.482,0.556-1.02,1.064-2.142,1.041c-0.985,0.148-2.001,0.267-2.353,0.988
		l-1.996-0.114c-1.229-0.081-2.49-0.04-3.923,0.667c-2.056,0.526-4.328,1.867-6.583,3.166c-2.373,0.935-1.914,2.176-3.427,3.415
		c-1.913,2.617-2.748,5.771-3.826,8.802c-0.88,2.499-0.092,3.844,1.7,4.49c0.689,0.727,1.323,1.667,1.912,2.792
		c0.018,2.061,0.991,2.172,1.806,2.613c0.483,0.719,1.164,2.08,1.724,3.225c1.119,1.898,2.554,3.41,4.536,4.262
		c1.795,0.84,3.583,1.924,5.407,1.145c1.68,0.73,3.365,1.049,5.073,0.107c1.565-0.934,3.022-1.451,4.383-1.584l3.81-3.16
		c1.693-0.246,1.533-2.311,1.53-4.219c0.448-2.723,1.647-5.448,1.336-8.164l0.735-3.155
		C269.231,47.612,268.871,46.654,268.577,45.732z M263.085,48.281l-0.499,2.148c0.212,1.851-0.604,3.712-0.913,5.569
		c0.004,1.303,0.114,2.707-1.041,2.875l-2.598,2.154c-0.928,0.094-1.922,0.443-2.987,1.08c-1.165,0.643-2.315,0.426-3.461-0.072
		c-1.244,0.529-2.463-0.207-3.686-0.785c-1.354-0.578-2.33-1.609-3.092-2.902c-0.384-0.781-0.848-1.705-1.177-2.199
		c-0.553-0.303-1.22-0.379-1.233-1.779c-0.398-0.768-0.83-1.41-1.302-1.905c-1.22-0.437-1.759-1.354-1.159-3.061
		c0.735-2.065,1.304-4.215,2.609-5.999c1.031-0.846,0.718-1.694,2.335-2.331c1.54-0.887,3.086-1.8,4.49-2.157
		c0.975-0.481,1.835-0.51,2.675-0.455l1.358,0.079c0.242-0.493,0.935-0.572,1.606-0.673c0.763,0.015,1.13-0.332,1.46-0.712
		l1.046,0.108c1.386,0.302,2.456,0.806,3.189,1.52l1.781,2.84c0.532,0.281,0.605,0.771,0.529,1.328l0.24,1.849l-0.012,2.057
		C263.446,47.486,263.689,48.139,263.085,48.281z"/>
	<path fill="#FFFFFF" d="M195.101,63.357c1.697-0.246,1.536-2.311,1.531-4.219c0.449-2.723,1.649-5.448,1.339-8.164l0.733-3.155
		c0.884-0.208,0.524-1.167,0.231-2.088l0.022-3.015l-0.355-2.714c0.113-0.815,0.009-1.534-0.775-1.949l-2.61-4.167
		c-1.079-1.047-2.647-1.787-4.679-2.229l-1.537-0.155c-0.482,0.556-1.021,1.064-2.141,1.041c-0.984,0.148-2.001,0.267-2.354,0.988
		l-1.995-0.114c-1.231-0.081-2.491-0.04-3.923,0.667c-0.817,0.209-1.671,0.55-2.541,0.963c-1.481,0.12-4.136,0.342-4.48,0.515
		c-0.382,0.19-0.765,0.407-1.146,0.637c-0.652-0.091-1.265-0.176-1.815-0.248c-0.662-0.087-1.338-0.101-2.027-0.044l-1.846,0.259
		l-0.085,0.345h-0.347c-0.172,0-0.316-0.056-0.43-0.171c0.055-0.058,0.099-0.088,0.128-0.088s0.072-0.028,0.13-0.086h-0.776
		c-0.404,0-0.604,0.116-0.604,0.345c-0.117-0.056-0.291-0.086-0.519-0.086c-0.29,0-0.547,0.03-0.777,0.086
		c-0.23,0.058-0.462,0.086-0.69,0.086c-0.403,0-0.721-0.144-0.949-0.432l-0.174,0.258c-0.171,0.058-0.375,0.086-0.604,0.086
		c-0.634,0-1.035-0.402-1.209-1.208c1.036-1.496,2-3.151,2.891-4.962c0.894-1.813,1.798-3.467,2.721-4.964
		c0.632-0.805,1.091-1.683,1.382-2.631c0.286-0.95,0.605-1.944,0.947-2.979c-0.287-0.115-0.504-0.303-0.646-0.561
		c-0.145-0.259-0.36-0.39-0.647-0.39c-0.173,0-0.316,0.029-0.433,0.086c-0.057-0.461-0.23-0.734-0.516-0.82
		c-0.29-0.086-0.577-0.129-0.864-0.129h-0.52c-0.401,0-0.634-0.114-0.689-0.346c-0.462,0-0.851,0.074-1.164,0.215
		c-0.317,0.146-0.605,0.304-0.865,0.475c-0.258,0.173-0.533,0.345-0.819,0.519c-0.287,0.173-0.633,0.344-1.035,0.518
		c-0.116,0.575-0.387,1.108-0.819,1.598c-0.432,0.488-0.646,0.991-0.646,1.51c0,0.345,0.113,0.635,0.345,0.863
		c0,0.231-0.103,0.375-0.303,0.432c-0.203,0.058-0.389,0.086-0.561,0.086c-0.116,0.057-0.332,0.23-0.648,0.517
		c-0.316,0.29-0.474,0.635-0.474,1.035c0,0.232,0.084,0.462,0.259,0.693c-0.231,0.057-0.36,0.273-0.389,0.646
		c-0.031,0.376-0.188,0.562-0.473,0.562c-0.117,0-0.23-0.028-0.349-0.085c-0.979,1.611-1.798,3.308-2.46,5.091
		c-0.662,1.784-1.309,3.424-1.941,4.921l-0.778-0.086c-1.322,0-2.475,0.388-3.452,1.165c-0.695,0.554-1.304,1.038-1.825,1.461
		c0.071-0.136,0.145-0.271,0.188-0.426c0.112-0.433,0.201-0.892,0.259-1.38c0.057-0.489,0.114-0.964,0.171-1.425
		c0.058-0.459,0.23-0.864,0.52-1.208c-0.173-0.344-0.289-0.718-0.345-1.123c-0.059-0.402-0.102-0.79-0.132-1.165
		c-0.027-0.374-0.114-0.747-0.258-1.123c-0.145-0.374-0.418-0.734-0.82-1.079c-0.115-0.346-0.301-0.589-0.561-0.733
		c-0.259-0.144-0.549-0.26-0.863-0.346c-0.317-0.085-0.619-0.172-0.906-0.259c-0.289-0.086-0.547-0.245-0.777-0.474l-0.173,0.259
		c-2.07,0.289-4.143,0.764-6.214,1.424c-2.071,0.662-3.683,1.482-4.833,2.459h-0.172c-0.461,0-0.734,0.116-0.82,0.344
		c-0.087,0.232-0.419,0.377-0.993,0.433c-2.131,1.382-4.159,2.978-6.085,4.791c-1.929,1.813-3.813,3.611-5.653,5.395
		c-0.231-0.114-0.347-0.315-0.347-0.604v-0.691c0.633-2.013,1.554-3.971,2.763-5.871c1.208-1.898,2.214-3.825,3.022-5.782
		c-0.116-0.056-0.203-0.173-0.259-0.345c-0.117-0.229-0.173-0.46-0.173-0.69s0.099-0.389,0.301-0.475
		c0.201-0.087,0.446-0.159,0.735-0.216c0.286-0.056,0.545-0.143,0.776-0.259c0.229-0.115,0.402-0.344,0.519-0.689
		c0.114-0.174,0.172-0.432,0.172-0.777c0-0.402-0.086-0.776-0.259-1.121c-0.172-0.346-0.344-0.575-0.517-0.691
		c-0.29-0.058-0.591-0.1-0.907-0.13c-0.317-0.029-0.62-0.043-0.906-0.043c-0.979,0-1.67,0.145-2.072,0.432
		c-1.323,0-2.317,0.301-2.978,0.906c-0.662,0.604-1.208,1.337-1.639,2.202c-0.433,0.863-0.808,1.756-1.122,2.675
		c-0.317,0.923-0.764,1.728-1.338,2.417c-0.059,0.691-0.231,1.338-0.518,1.942c-0.289,0.604-0.593,1.195-0.907,1.771
		c-0.316,0.575-0.619,1.151-0.906,1.726c-0.288,0.576-0.489,1.207-0.604,1.898c-0.345,0.345-0.577,0.749-0.69,1.208
		c-0.117,0.463-0.216,0.907-0.304,1.337c-0.085,0.435-0.186,0.867-0.302,1.295c-0.116,0.433-0.375,0.819-0.776,1.165
		c-0.289,0.808-0.533,1.511-0.733,2.114c-0.203,0.605-0.418,1.194-0.648,1.771c-0.229,0.576-0.489,1.149-0.777,1.726
		c-0.288,0.575-0.633,1.238-1.035,1.984c-0.172,0.114-0.274,0.273-0.303,0.475c-0.029,0.203-0.058,0.404-0.086,0.605
		c-0.03,0.201-0.074,0.389-0.13,0.561c-0.057,0.172-0.172,0.291-0.346,0.344c0,0.287-0.101,0.535-0.302,0.736
		c-0.202,0.201-0.301,0.389-0.301,0.561c0,0.059,0.056,0.203,0.173,0.432c-0.462,0.289-0.851,0.721-1.167,1.293
		c-0.316,0.576-0.62,1.266-0.906,2.072h-0.603c-1.21,0-2.115-0.215-2.719-0.646c-0.605-0.432-1.194-0.648-1.77-0.648
		c-0.46,0-0.92,0.23-1.381,0.693c-0.633,0.461-0.978,1.078-1.036,1.852c-0.057,0.777-0.23,1.57-0.518,2.375
		c0,0.518,0.23,0.879,0.691,1.08c0.459,0.203,1.007,0.332,1.64,0.389c0.634,0.057,1.282,0.086,1.942,0.086
		c0.661,0,1.164,0.086,1.511,0.258c-0.691,1.266-1.353,2.719-1.986,4.359c-0.632,1.641-1.264,3.178-1.899,4.617
		c-0.057,0.461-0.185,0.91-0.387,1.34c-0.201,0.434-0.433,0.863-0.691,1.297c-0.259,0.428-0.487,0.859-0.69,1.291
		c-0.202,0.434-0.303,0.877-0.303,1.338v0.262c-0.632,1.436-1.251,2.729-1.854,3.883c-0.605,1.148-1.079,2.559-1.425,4.229
		c0,0.174-0.129,0.33-0.388,0.473c-0.258,0.146-0.388,0.332-0.388,0.562c0,0.057,0.058,0.143,0.172,0.26
		c-0.401,0.518-0.676,1.035-0.82,1.555c-0.142,0.514-0.272,1.031-0.387,1.553c-0.115,0.516-0.26,1.064-0.433,1.639
		c-0.172,0.574-0.459,1.152-0.863,1.729c0,0.977-0.215,1.84-0.646,2.588c-0.432,0.748-0.791,1.494-1.079,2.244
		c0.23,0.229,0.345,0.402,0.345,0.518c0,0.229-0.071,0.402-0.216,0.518c-0.142,0.115-0.215,0.256-0.215,0.432
		c0,0.174,0.086,0.287,0.259,0.344c0.172,0.059,0.317,0.088,0.432,0.088c0.403,0,0.705-0.174,0.906-0.52
		c0.202-0.344,0.418-0.66,0.647-0.949c0.575-0.979,1.079-1.883,1.511-2.719s0.993-1.768,1.682-2.803
		c0.461-0.982,0.792-1.729,0.994-2.248c0.202-0.518,0.589-1.234,1.165-2.156c0.231-0.23,0.375-0.459,0.432-0.688
		c0.058-0.234,0.117-0.477,0.172-0.736c0.059-0.26,0.13-0.504,0.215-0.734c0.088-0.23,0.275-0.432,0.562-0.605v-0.258
		c0-0.344,0.086-0.664,0.259-0.949c0.173-0.289,0.375-0.547,0.604-0.775c0.23-0.232,0.461-0.477,0.69-0.736
		c0.231-0.258,0.375-0.531,0.432-0.82c1.093-1.898,2.101-3.768,3.02-5.609c0.921-1.842,1.698-3.713,2.331-5.609
		c0.575-0.518,1.021-1.123,1.338-1.814c0.315-0.689,0.604-1.41,0.863-2.16c0.259-0.746,0.546-1.48,0.863-2.199
		c0.315-0.719,0.734-1.336,1.252-1.854c0.459,0.113,0.777,0.172,0.948,0.172c0.116,0,0.23-0.086,0.346-0.26
		c0.172,0.059,0.373,0.088,0.604,0.088c0.287,0,0.488-0.059,0.604-0.174c0.115-0.115,0.216-0.244,0.301-0.387
		c0.086-0.145,0.201-0.291,0.346-0.434c0.142-0.143,0.388-0.215,0.733-0.215l0.346,0.777h0.258c0.461,0,0.994-0.129,1.598-0.389
		c0.604-0.258,1.05-0.561,1.337-0.908c0.174,0.059,0.402,0.086,0.691,0.086c0.806,0,1.582-0.197,2.33-0.602
		c0.748-0.402,1.469-0.748,2.158-1.037c0.518,0,0.777-0.156,0.777-0.475c0-0.314,0.172-0.473,0.518-0.473h0.259
		c0.056,0.229,0.2,0.344,0.432,0.344c0.287,0,0.575-0.129,0.863-0.387c0.286-0.26,0.545-0.391,0.777-0.391h0.173
		c0.345-0.344,0.775-0.52,1.293-0.52s0.778-0.256,0.778-0.773h0.432c0.746,0,1.351-0.258,1.812-0.777
		c1.324-0.229,2.603-0.848,3.841-1.855c1.236-1.008,2.546-1.885,3.927-2.631c0.519-0.75,1.122-1.325,1.813-1.727
		c0.69-0.404,1.178-1.006,1.466-1.813c0.748-0.46,1.596-1.222,2.547-2.288c0.948-1.064,1.51-2.288,1.682-3.668
		c0.634-0.23,1.195-0.648,1.683-1.252c0.241-0.297,0.456-0.599,0.647-0.9c0.189,0.088,0.311,0.198,0.346,0.339
		c0.229-0.229,0.519-0.374,0.863-0.432c0.346-0.057,0.746-0.086,1.209-0.086c0.458,0,0.874,0.016,1.25,0.043
		c0.374,0.031,0.705,0.075,0.992,0.131c-0.344,0.518-0.589,1.05-0.733,1.596c-0.145,0.548-0.274,1.094-0.389,1.64
		c-0.114,0.548-0.271,1.066-0.475,1.555c-0.203,0.488-0.53,0.905-0.99,1.252c-0.347,1.208-0.692,2.245-1.037,3.106
		c-0.345,0.864-0.663,1.686-0.95,2.459c-0.288,0.777-0.561,1.598-0.82,2.461c-0.258,0.863-0.473,1.898-0.647,3.107
		c-0.518,0.518-0.893,1.035-1.121,1.553c-0.231,0.518-0.419,1.035-0.562,1.553c-0.145,0.52-0.274,1.068-0.388,1.641
		c-0.116,0.574-0.317,1.18-0.604,1.814c-0.632,0.633-0.978,1.467-1.036,2.504c-0.056,1.035-0.144,2.039-0.259,3.021
		c-0.402,0.344-0.675,0.717-0.819,1.119c-0.143,0.402-0.244,0.82-0.302,1.254c-0.058,0.432-0.129,0.863-0.216,1.295
		c-0.087,0.434-0.272,0.848-0.561,1.252c0.116,0.744,0.549,1.264,1.295,1.551l0.086-0.084c0.29-0.172,0.576-0.404,0.864-0.689
		c0.288-0.289,0.43-0.637,0.43-1.035c0-0.232-0.056-0.432-0.171-0.605c1.149-1.322,1.984-2.734,2.502-4.23
		c0.519-1.496,1.179-2.936,1.985-4.316c0.115-0.688,0.259-1.207,0.432-1.551c0.173-0.346,0.388-0.664,0.646-0.951
		s0.533-0.59,0.821-0.906c0.287-0.316,0.575-0.789,0.862-1.422c0.347-0.23,0.546-0.562,0.604-0.996
		c0.058-0.432,0.087-0.861,0.087-1.293s0.058-0.834,0.174-1.207c0.113-0.373,0.431-0.648,0.949-0.82c0-0.576,0.143-1.08,0.432-1.512
		c0.287-0.432,0.574-0.834,0.862-1.209c0.288-0.371,0.562-0.787,0.819-1.25c0.261-0.461,0.39-1.005,0.39-1.64V53.95l0.345-0.519
		c0.634-0.976,1.167-1.854,1.6-2.632c0.431-0.777,0.99-1.856,1.682-3.237v-0.347c0-0.343,0.099-0.603,0.301-0.775
		c0.202-0.171,0.404-0.359,0.605-0.56c0.2-0.203,0.402-0.433,0.604-0.691c0.2-0.259,0.303-0.617,0.303-1.078
		c0.345-0.116,0.787-0.174,1.336-0.174c0.546,0,0.85-0.143,0.906-0.432l1.122,0.085c0.692,0.06,1.368,0.03,2.028-0.085
		c0.661-0.114,1.324-0.243,1.984-0.387c0.661-0.144,1.281-0.287,1.855-0.432c0.576-0.144,1.123-0.215,1.64-0.215h0.519
		c0.344-0.289,0.531-0.547,0.562-0.778c0.028-0.229,0.246-0.343,0.647-0.343h0.346c0.115,0.114,0.286,0.186,0.518,0.214
		c0.229,0.029,0.345,0.129,0.345,0.302v0.086l0.477-0.239c-1.441,2.388-2.194,5.117-3.133,7.755c-0.88,2.499-0.092,3.844,1.701,4.49
		c0.688,0.727,1.322,1.667,1.91,2.792c0.019,2.061,0.994,2.172,1.807,2.613c0.483,0.719,1.164,2.08,1.725,3.225
		c1.118,1.898,2.553,3.41,4.536,4.262c1.792,0.84,3.583,1.924,5.407,1.145c1.678,0.73,3.365,1.049,5.073,0.107
		c1.564-0.934,3.021-1.451,4.382-1.584L195.101,63.357z M134.954,40.829c-0.347,1.381-0.95,2.562-1.812,3.539
		c-0.404,1.498-1.009,2.706-1.814,3.625c-0.806,0.92-1.611,1.986-2.417,3.194c-0.403,0.058-0.747,0.332-1.035,0.818
		c-0.289,0.491-0.548,0.765-0.777,0.821c-1.381,1.208-3.122,2.476-5.221,3.796c-2.102,1.324-4.101,2.391-5.999,3.195
		c-0.518,0.342-0.994,0.504-1.425,0.475c-0.432-0.029-0.964,0.244-1.597,0.818c-0.518,0.119-0.893,0.188-1.122,0.217
		c-0.23,0.029-0.432,0.074-0.604,0.129c-0.173,0.057-0.375,0.1-0.604,0.131c-0.23,0.027-0.576,0.043-1.036,0.043
		c-0.288,0.229-0.69,0.402-1.208,0.516c-0.517,0.115-1.008,0.174-1.467,0.174c-0.345,0-0.647-0.041-0.906-0.129
		c-0.258-0.086-0.39-0.186-0.39-0.303c0-0.461,0.173-0.918,0.518-1.381c0.347-0.459,0.518-0.83,0.518-1.125
		c0-0.172-0.058-0.312-0.171-0.43c0.631-0.918,1.294-1.727,1.984-2.416c0.691-0.691,1.265-1.612,1.727-2.763
		c1.61-1.898,3.107-3.768,4.489-5.61c1.38-1.842,3.164-3.567,5.352-5.178c0.057-0.575,0.215-0.979,0.475-1.21
		c0.258-0.228,0.546-0.417,0.865-0.561c0.314-0.143,0.646-0.302,0.991-0.475c0.345-0.172,0.633-0.487,0.863-0.949
		c1.496-0.919,2.92-1.797,4.272-2.633c1.352-0.833,2.948-1.566,4.79-2.201c0.058-0.229,0.173-0.345,0.346-0.345
		c0.113,0,0.271,0.056,0.474,0.172c0.201,0.117,0.417,0.175,0.648,0.175c0.172,0,0.345-0.145,0.518-0.433
		c0.461,0.174,0.789,0.433,0.993,0.776c0.2,0.344,0.358,0.749,0.474,1.209C135.527,38.009,135.297,39.447,134.954,40.829z
		 M188.392,61.027c-0.927,0.094-1.921,0.443-2.985,1.08c-1.165,0.643-2.315,0.426-3.462-0.072c-1.243,0.529-2.462-0.207-3.687-0.785
		c-1.352-0.578-2.329-1.609-3.092-2.902c-0.383-0.781-0.846-1.705-1.177-2.199c-0.553-0.303-1.218-0.379-1.231-1.779
		c-0.4-0.768-0.832-1.41-1.303-1.905c-1.221-0.437-1.758-1.354-1.159-3.061c0.734-2.065,1.304-4.215,2.608-5.999
		c1.032-0.846,0.718-1.694,2.334-2.331c1.541-0.887,3.088-1.8,4.492-2.157c0.977-0.481,1.834-0.51,2.674-0.455l1.36,0.079
		c0.241-0.493,0.936-0.572,1.605-0.673c0.763,0.015,1.13-0.332,1.459-0.712l1.047,0.108c1.385,0.302,2.456,0.806,3.19,1.52
		l1.779,2.84c0.535,0.281,0.607,0.771,0.529,1.328l0.242,1.849l-0.014,2.057c0.199,0.628,0.444,1.281-0.16,1.423l-0.498,2.148
		c0.212,1.851-0.605,3.712-0.915,5.569c0.005,1.303,0.113,2.707-1.041,2.875L188.392,61.027z"/>
</g>
<path fill="#FFFFFF" d="M164.032-59.175c6.592-4.845,12.884-7.796,18.917-8.979l15.667-15.793c7.484-1.84,5.86-11.005,5.014-19.544
	c0.835-12.371,5.005-25.096,2.446-37.113l1.911-14.417c3.869-1.312,1.844-5.456,0.136-9.444l-1.211-13.493l-1.532-6.645
	c-0.212,0.138-0.407,0.305-0.56,0.536c-0.124,0.025-0.231,0.064-0.355,0.091c-0.023,0-0.041-0.001-0.067-0.001
	c-0.987,0-1.915,0.097-2.779,0.272c-0.34-0.051-0.679-0.079-1.019-0.079c-0.881,0-1.439,0.363-1.747,1.013
	c-0.128,0.062-0.243,0.13-0.368,0.191c-1.364,0.427-2.918,0.718-4.698,0.855c-1.89,0.141-3.849,0.235-5.889,0.282
	c-2.034,0.051-4.07,0.12-6.104,0.216c-2.03,0.093-3.898,0.425-5.604,0.994h-6.523c-1.137,0-1.896,0.237-2.274,0.707
	c-0.374,0.097-0.943,0.144-1.699,0.144l-3.262-0.144c-0.76,0-1.443,0.074-2.061,0.215c-0.614,0.139-1.11,0.449-1.487,0.922
	c-0.854,0.281-1.657,0.428-2.413,0.428c-1.324,0-2.53-0.31-3.619-0.92c-1.088-0.617-1.771-1.445-2.058-2.488
	c0-2.173,0.711-3.925,2.131-5.25c1.419-1.325,2.931-2.462,4.54-3.404l0.709-0.429c0.943,0,1.678-0.237,2.199-0.707
	c0.519-0.474,1.065-0.802,1.634-0.995c1.61-0.096,3.266-0.235,4.969-0.427c1.702-0.187,3.401-0.232,5.104-0.142l2.415,0.142v-0.567
	h1.415l-0.282,0.287c0.379,0.192,0.519,0.28,0.426,0.28l0.849-0.567h21.608c0.775,0.242,1.613,0.416,2.503,0.501
	c0.24,0.106,0.482,0.168,0.726,0.136c0.374-0.043,0.753-0.019,1.133,0.07c0.013-0.05-0.06-0.1-0.159-0.145
	c0.322-0.006,0.631-0.022,0.941-0.044c0.134,0.006,0.265,0.011,0.401,0.019c-0.327-2.521-1.46-4.586-4.229-5.72l-13.48-17.507
	c-5.281-4.222-12.622-6.844-21.908-7.952l-6.939-0.022c-1.92,2.7-4.104,5.21-9.134,5.592c-4.337,1.087-8.832,2.062-10.097,5.441
	l-8.985,0.36c-5.536,0.174-11.157,0.897-17.256,4.679c-8.983,3.251-18.555,10.226-28.092,17.018
	c-10.204,5.211-7.605,10.567-13.842,16.774c-7.426,12.539-9.792,27.006-13.301,41.035c-2.852,11.576,1.267,17.237,9.561,19.355
	c3.398,2.951,6.646,6.896,9.763,11.671c0.091,0.87,0.224,1.635,0.375,2.347v-0.052c0.782-1.665,1.491-3.574,2.132-5.733
	c0.635-2.151,1.54-4.062,2.718-5.73c0.882-4.112,2.351-8.397,4.409-12.855c2.057-4.461,3.969-8.893,5.729-13.302
	c0.589-1.467,1.081-2.768,1.474-3.893c0.389-1.127,0.73-2.206,1.026-3.236c0.293-1.025,0.636-2.056,1.028-3.086
	c0.393-1.029,0.932-2.176,1.618-3.449c0.491-0.49,0.929-1.204,1.325-2.132c0.389-0.931,0.879-1.738,1.468-2.426
	c0.392-2.349,1.077-4.505,2.055-6.467c0.979-1.96,1.861-3.915,2.645-5.88h0.295c0.881-1.959,1.666-3.747,2.353-5.361
	c0.686-1.618,1.323-3.161,1.907-4.632c0.588-1.47,1.178-2.986,1.764-4.557c0.588-1.564,1.271-3.276,2.059-5.141
	c0.589-0.687,1.074-1.569,1.47-2.645c0.388-1.076,0.808-2.153,1.248-3.234c0.44-1.075,0.931-2.079,1.47-3.008
	c0.538-0.931,1.247-1.692,2.131-2.279c0.097-0.587,0.342-1.051,0.732-1.397c0.392-0.343,0.833-0.61,1.323-0.808
	c0.489-0.198,1-0.369,1.543-0.515c0.536-0.144,1.005-0.369,1.397-0.662c0.78-0.194,1.321-0.295,1.618-0.295
	c0.586,0,1.149,0.076,1.69,0.221c0.534,0.148,1.149,0.27,1.835,0.365c0.095,0.296,0.39,0.592,0.881,0.884
	c0.489,0.296,0.931,0.641,1.323,1.03c-1.273,3.628-3.086,6.759-5.439,9.403v0.734c0,0.98-0.244,1.79-0.731,2.424
	c-0.494,0.64-1.053,1.274-1.691,1.913c-0.636,0.639-1.201,1.324-1.689,2.055c-0.494,0.734-0.734,1.594-0.734,2.572v0.147
	c-0.885,1.766-1.569,3.111-2.058,4.041c-0.494,0.932-1.223,2.28-2.202,4.045c-0.2,1.174-0.516,2.181-0.958,3.011
	c-0.44,0.831-0.905,1.665-1.396,2.5c-0.491,0.833-0.957,1.688-1.397,2.569c-0.441,0.886-0.711,1.912-0.808,3.085
	c-1.374,1.471-2.475,3.258-3.307,5.367c-0.833,2.105-1.741,3.845-2.717,5.213l-0.147,1.031c-0.294,0.394-0.587,1.031-0.88,1.911
	c-0.294,0.882-0.588,1.666-0.884,2.351c-0.786,1.174-1.469,2.373-2.055,3.602c-0.589,1.224-1.176,2.468-1.763,3.746
	c-0.588,1.272-1.174,2.523-1.766,3.747c-0.585,1.223-1.321,2.376-2.205,3.452c-0.783,1.667-1.372,3.457-1.764,5.364
	c-0.393,1.909-1.319,3.554-2.793,4.921l0.151,0.733c0,0.882-0.221,1.76-0.662,2.647c-0.442,0.881-0.664,1.663-0.664,2.351
	c0,0.783,0.538,1.176,1.618,1.176c2.448-1.958,4.481-4.066,6.099-6.318c1.614-2.256,3.501-4.115,5.654-5.586
	c2.646-3.329,5.88-6.395,9.7-9.186c3.821-2.79,7.247-5.606,10.288-8.448c0.783-0.098,1.471-0.418,2.056-0.956
	c0.588-0.538,1.176-1.127,1.764-1.765c0.587-0.634,1.199-1.199,1.835-1.689c0.639-0.491,1.445-0.735,2.426-0.735
	c0.588-0.487,1.421-0.858,2.499-1.104c1.078-0.242,2.059-0.561,2.938-0.955l1.177-0.15c0.88,0,1.689,0.177,2.427,0.517
	c0.731,0.346,1.344,0.958,1.834,1.839c0,1.761-0.49,3.428-1.472,4.998c-0.978,1.569-1.468,3.284-1.468,5.143
	c0,0.688,0.05,1.226,0.15,1.615c-1.178,1.081-1.89,2.355-2.134,3.82c-0.245,1.472-0.859,2.845-1.837,4.117
	c-0.588,0.984-1.054,2.057-1.396,3.235c-0.344,1.175-0.685,2.347-1.031,3.526c-0.344,1.175-0.758,2.328-1.247,3.452
	c-0.49,1.127-1.176,2.081-2.055,2.862c0.096,0.297,0.144,0.79,0.144,1.472c0,1.471-0.416,3.014-1.247,4.629
	c-0.834,1.619-1.79,2.968-2.868,4.04c0.2,0.788,0.295,1.278,0.295,1.471c0,0.979-0.268,1.836-0.804,2.57
	c-0.541,0.732-0.812,1.691-0.812,2.866c-2.349,3.53-4.238,7.298-5.655,11.318c-1.425,4.016-3.065,7.79-4.926,11.313l-1.616,0.88
	c-1.276-1.565-1.91-3.427-1.91-5.585c0-2.546,0.515-5.117,1.543-7.712c1.028-2.594,1.638-4.872,1.836-6.832
	c0.488-4.413,1.348-8.23,2.57-11.463c1.224-3.234,2.522-6.708,3.896-10.432c0-1.568,0.391-2.943,1.175-4.118
	c0.783-1.176,1.225-2.547,1.323-4.114c0.098-0.981,0.439-2.13,1.029-3.456c0.587-1.324,0.881-2.524,0.881-3.597
	c0-1.083-0.394-1.862-1.173-2.354c-1.373,0.492-2.966,1.368-4.778,2.643c-1.814,1.275-3.724,2.772-5.731,4.486
	c-2.007,1.712-3.992,3.573-5.954,5.583c-1.96,2.006-3.672,3.995-5.141,5.952c0,0.787-0.171,1.348-0.515,1.689
	c-0.343,0.341-0.759,0.638-1.248,0.885c-0.491,0.243-0.957,0.54-1.397,0.878c-0.439,0.346-0.711,0.808-0.808,1.396
	c-1.372,1.472-2.672,2.99-3.895,4.557c-1.224,1.568-2.401,3.158-3.527,4.778c-1.126,1.615-2.23,3.184-3.305,4.701
	c-1.081,1.523-2.206,2.866-3.379,4.041c-0.816,0.247-1.463,0.553-2.006,0.898c0.966,0.378,1.957,0.686,2.913,1.085
	c2.474,3.015,6.111,8.81,9.119,13.674c5.826,8.012,12.901,14.158,22.141,17.101c8.393,2.98,16.869,7.061,24.693,2.776
	C149.112-54.905,156.795-54.206,164.032-59.175z M149.516-106.306c-0.851,0.281-1.371,0.733-1.559,1.347
	c-0.191,0.614-0.284,1.276-0.284,1.985c0,0.708-0.05,1.417-0.147,2.129c-0.091,0.709-0.425,1.253-0.991,1.631
	c-0.475,1.043-0.949,1.825-1.421,2.346c-0.472,0.517-0.922,1.016-1.347,1.486c-0.425,0.469-0.778,0.991-1.065,1.562
	c-0.281,0.568-0.519,1.421-0.71,2.552c-1.324,2.269-2.411,4.634-3.259,7.096c-0.851,2.454-2.226,4.775-4.119,6.95
	c0.193,0.284,0.288,0.612,0.288,0.995c0,0.659-0.238,1.229-0.709,1.708c-0.472,0.472-0.947,0.85-1.419,1.13l-0.14,0.142
	c-1.231-0.476-1.938-1.322-2.131-2.553c0.476-0.659,0.78-1.347,0.922-2.059c0.14-0.709,0.261-1.419,0.356-2.128
	c0.097-0.707,0.263-1.395,0.498-2.054c0.237-0.667,0.689-1.279,1.344-1.849c0.193-1.609,0.334-3.261,0.426-4.963
	c0.1-1.703,0.668-3.077,1.704-4.114c0.472-1.041,0.803-2.034,0.996-2.98c0.189-0.945,0.401-1.841,0.641-2.698
	c0.232-0.85,0.541-1.699,0.922-2.557c0.378-0.847,0.996-1.703,1.845-2.553c0.282-1.985,0.638-3.688,1.065-5.105
	c0.423-1.421,0.872-2.768,1.348-4.043c0.475-1.273,0.994-2.626,1.562-4.046c0.565-1.415,1.134-3.121,1.702-5.106
	c0.756-0.568,1.301-1.252,1.632-2.059c0.331-0.799,0.59-1.652,0.777-2.555c0.19-0.897,0.407-1.793,0.645-2.694
	c0.231-0.898,0.636-1.773,1.206-2.623c-0.476-0.096-1.019-0.166-1.635-0.217c-0.615-0.045-1.299-0.068-2.056-0.068
	c-0.76,0-1.419,0.048-1.987,0.14c-0.568,0.096-1.04,0.333-1.419,0.711c-0.096-0.378-0.523-0.637-1.28-0.784
	c-0.754-0.141-1.134-0.587-1.134-1.345c0.19-0.755,0.472-1.327,0.855-1.705c0.375-0.378,0.756-0.71,1.131-0.993
	c0.377-0.284,0.734-0.568,1.065-0.85c0.332-0.288,0.544-0.71,0.638-1.278c1.04-0.855,2.365-1.913,3.971-3.192
	c1.612-1.281,3.503-1.918,5.677-1.918l1.28,0.144c1.042-2.457,2.103-5.158,3.193-8.088c1.088-2.931,2.435-5.721,4.046-8.369
	c0.188,0.09,0.379,0.139,0.568,0.139c0.472,0,0.731-0.308,0.778-0.923c0.046-0.614,0.26-0.967,0.637-1.065
	c-0.28-0.378-0.425-0.754-0.425-1.134c0-0.659,0.26-1.228,0.78-1.701c0.52-0.474,0.876-0.758,1.063-0.855
	c0.284,0,0.591-0.043,0.921-0.141c0.331-0.094,0.499-0.328,0.499-0.709c-0.377-0.375-0.564-0.85-0.564-1.42
	c0-0.853,0.353-1.674,1.056-2.479c0.712-0.806,1.163-1.685,1.354-2.625c0.661-0.289,1.228-0.57,1.701-0.855
	c0.472-0.286,0.923-0.567,1.347-0.85c0.427-0.285,0.898-0.547,1.423-0.78c0.519-0.233,1.162-0.356,1.915-0.356
	c0.089,0.379,0.475,0.568,1.134,0.568h0.85c0.472,0,0.946,0.07,1.422,0.214c0.472,0.138,0.752,0.587,0.853,1.347
	c0.184-0.097,0.424-0.144,0.703-0.144c0.477,0,0.831,0.214,1.071,0.64c0.231,0.422,0.584,0.733,1.06,0.919
	c-0.566,1.706-1.091,3.338-1.56,4.898c-0.479,1.562-1.23,3.006-2.271,4.327c-1.516,2.46-3.003,5.177-4.472,8.162
	c-1.461,2.976-3.048,5.697-4.751,8.159c0.28,1.322,0.943,1.987,1.983,1.987c0.379,0,0.712-0.047,0.994-0.146l0.284-0.423
	c0.374,0.472,0.893,0.709,1.564,0.709c0.379,0,0.75-0.05,1.131-0.141c0.381-0.097,0.8-0.146,1.278-0.146
	c0.381,0,0.659,0.048,0.853,0.146c0-0.378,0.328-0.569,0.991-0.569h1.276c-0.093,0.096-0.161,0.14-0.212,0.14
	c-0.05,0-0.12,0.05-0.216,0.143c0.188,0.188,0.428,0.286,0.712,0.286h0.566l0.14-0.569l12.065-0.426
	c1.135-0.095,2.25-0.072,3.33,0.068c1.091,0.142,2.296,0.312,3.618,0.498c-0.564,1.703-1.3,2.931-2.199,3.691
	c-0.896,0.758-1.868,1.323-2.909,1.698c-1.044,0.379-2.175,0.735-3.404,1.069c-1.229,0.332-2.506,0.921-3.831,1.771l-2.271,1.136
	v-0.142c0-0.288-0.189-0.448-0.568-0.496c-0.377-0.049-0.663-0.166-0.853-0.355h-0.566c-0.659,0-1.015,0.189-1.061,0.564
	c-0.051,0.381-0.355,0.809-0.926,1.285h-0.853c-0.844,0-1.752,0.12-2.693,0.35c-0.949,0.236-1.964,0.475-3.048,0.712
	c-1.091,0.238-2.178,0.447-3.266,0.634c-1.091,0.191-2.199,0.239-3.333,0.141l-1.849-0.141c-0.092,0.475-0.588,0.711-1.487,0.711
	s-1.631,0.096-2.199,0.286c0,0.756-0.166,1.346-0.498,1.771c-0.333,0.422-0.664,0.804-0.992,1.134
	c-0.331,0.333-0.663,0.637-0.998,0.925c-0.328,0.282-0.496,0.706-0.496,1.276v0.567c-1.137,2.271-2.056,4.042-2.764,5.323
	c-0.71,1.275-1.587,2.718-2.629,4.327l-0.564,0.85v0.288c0,1.042-0.212,1.939-0.641,2.697c-0.424,0.757-0.878,1.438-1.347,2.051
	c-0.475,0.619-0.947,1.281-1.419,1.99C149.747-108.083,149.516-107.256,149.516-106.306z"/>
</svg>
