<?xml version="1.0" encoding="utf-8"?>
<!-- Generator: Adobe Illustrator 16.0.0, SVG Export Plug-In . SVG Version: 6.00 Build 0)  -->
<!DOCTYPE svg PUBLIC "-//W3C//DTD SVG 1.1//EN" "http://www.w3.org/Graphics/SVG/1.1/DTD/svg11.dtd">
<svg version="1.1" id="Layer_1" xmlns="http://www.w3.org/2000/svg" xmlns:xlink="http://www.w3.org/1999/xlink" x="0px" y="0px"
	 width="280px" height="108px" viewBox="0 0 280 108" enable-background="new 0 0 280 108" xml:space="preserve">
<rect x="-179.183" y="-347.353" display="none" fill="#EE2A7B" width="631.373" height="809.804"/>
<g display="none">
	<path display="inline" fill="#FFFFFF" d="M54.309,40.915c0.143-0.863,0.561-1.611,1.25-2.244c-0.057-0.229-0.086-0.547-0.086-0.949
		c0-1.094,0.288-2.102,0.863-3.021c0.575-0.92,0.864-1.899,0.864-2.935c-0.289-0.519-0.647-0.876-1.079-1.079
		c-0.432-0.201-0.907-0.302-1.425-0.302l-0.689,0.085c-0.517,0.232-1.094,0.418-1.726,0.561c-0.634,0.144-1.122,0.36-1.467,0.647
		c-0.577,0-1.052,0.146-1.425,0.432c-0.374,0.288-0.733,0.619-1.079,0.994c-0.345,0.375-0.69,0.719-1.036,1.036
		c-0.346,0.316-0.749,0.503-1.209,0.561c-1.784,1.668-3.797,3.322-6.041,4.962c-2.244,1.64-4.143,3.439-5.697,5.395
		c-1.267,0.865-2.374,1.958-3.324,3.282c-0.949,1.324-2.143,2.561-3.582,3.708c-0.634,0-0.949-0.229-0.949-0.688
		c0-0.404,0.129-0.863,0.388-1.382c0.26-0.518,0.389-1.036,0.389-1.554l-0.086-0.43c0.863-0.806,1.409-1.77,1.64-2.894
		c0.23-1.122,0.575-2.171,1.036-3.15c0.518-0.633,0.949-1.309,1.295-2.029c0.345-0.718,0.69-1.453,1.036-2.2
		c0.345-0.748,0.69-1.48,1.036-2.202c0.345-0.718,0.747-1.423,1.208-2.114c0.172-0.402,0.344-0.863,0.519-1.381
		c0.171-0.518,0.344-0.893,0.518-1.122l0.085-0.604c0.574-0.805,1.107-1.826,1.597-3.065c0.488-1.237,1.136-2.287,1.942-3.151
		c0.057-0.689,0.216-1.293,0.476-1.812c0.258-0.519,0.531-1.023,0.819-1.511c0.288-0.488,0.562-0.979,0.821-1.467
		c0.258-0.488,0.444-1.08,0.561-1.77c0.575-1.036,1.006-1.825,1.295-2.374c0.287-0.545,0.69-1.338,1.208-2.374v-0.086
		c0-0.575,0.142-1.079,0.432-1.509c0.288-0.433,0.617-0.834,0.993-1.21c0.373-0.373,0.703-0.746,0.992-1.122
		C46.957,8.472,47.1,7.999,47.1,7.423V6.992c1.381-1.554,2.445-3.396,3.195-5.524c-0.231-0.229-0.491-0.433-0.777-0.605
		c-0.289-0.172-0.461-0.345-0.519-0.518c-0.402-0.056-0.763-0.128-1.079-0.215C47.603,0.043,47.273,0,46.927,0
		c-0.171,0-0.488,0.058-0.948,0.172c-0.232,0.173-0.505,0.303-0.82,0.388c-0.317,0.087-0.619,0.188-0.907,0.305
		c-0.29,0.115-0.548,0.273-0.777,0.474c-0.231,0.202-0.375,0.474-0.431,0.819c-0.518,0.345-0.937,0.792-1.252,1.338
		c-0.316,0.547-0.603,1.137-0.862,1.771s-0.505,1.266-0.733,1.899c-0.231,0.632-0.518,1.15-0.863,1.553
		c-0.462,1.095-0.864,2.102-1.208,3.021c-0.346,0.921-0.692,1.813-1.036,2.676c-0.346,0.863-0.721,1.77-1.122,2.719
		c-0.404,0.949-0.864,2-1.382,3.152h-0.172c-0.462,1.151-0.979,2.302-1.554,3.451c-0.576,1.152-0.979,2.416-1.208,3.798
		c-0.346,0.404-0.634,0.878-0.864,1.424c-0.23,0.548-0.489,0.966-0.776,1.252c-0.404,0.749-0.72,1.422-0.95,2.029
		c-0.231,0.604-0.431,1.208-0.604,1.812c-0.174,0.605-0.375,1.239-0.604,1.9c-0.232,0.663-0.518,1.423-0.864,2.287
		c-1.036,2.59-2.158,5.194-3.366,7.813c-1.208,2.619-2.072,5.136-2.589,7.551c-0.69,0.98-1.224,2.103-1.598,3.369
		c-0.375,1.264-0.791,2.389-1.251,3.365v0.434c0,0.461-0.087,0.848-0.259,1.162c-0.173,0.318-0.375,0.637-0.605,0.949
		c-0.231,0.316-0.431,0.621-0.604,0.906c-0.172,0.289-0.258,0.635-0.258,1.037c0,0.287,0.086,0.604,0.258,0.949
		c0.403,0.459,0.893,0.691,1.468,0.691c0.402,0,0.777-0.088,1.123-0.26c0.344-0.174,0.718-0.314,1.121-0.432
		c0.346-0.346,0.692-0.648,1.037-0.906c0.345-0.26,0.804-0.477,1.381-0.648c0.691-0.689,1.352-1.482,1.985-2.371
		c0.632-0.893,1.28-1.814,1.942-2.764c0.661-0.949,1.351-1.885,2.07-2.807c0.72-0.916,1.482-1.813,2.289-2.675
		c0.057-0.343,0.215-0.616,0.474-0.819c0.259-0.2,0.531-0.374,0.82-0.517c0.288-0.143,0.531-0.315,0.733-0.518
		c0.201-0.202,0.303-0.533,0.303-0.995c0.863-1.148,1.869-2.313,3.022-3.495c1.149-1.18,2.315-2.272,3.495-3.28
		c1.178-1.005,2.301-1.884,3.366-2.632c1.063-0.747,1.999-1.265,2.806-1.553c0.459,0.289,0.69,0.748,0.69,1.38
		c0,0.635-0.172,1.338-0.518,2.116c-0.345,0.777-0.547,1.453-0.604,2.026c-0.058,0.923-0.317,1.729-0.777,2.418
		c-0.46,0.691-0.69,1.498-0.69,2.418c-0.808,2.187-1.569,4.228-2.288,6.126c-0.719,1.9-1.223,4.145-1.511,6.732
		c-0.115,1.152-0.474,2.492-1.079,4.016c-0.604,1.525-0.906,3.033-0.906,4.531c0,1.266,0.375,2.359,1.122,3.279l0.95-0.52
		c1.092-2.07,2.056-4.287,2.892-6.645c0.833-2.357,1.942-4.572,3.324-6.646c0-0.689,0.157-1.25,0.474-1.682
		c0.314-0.432,0.475-0.934,0.475-1.51c0-0.115-0.059-0.404-0.173-0.863c0.632-0.635,1.193-1.424,1.683-2.375
		c0.488-0.949,0.734-1.856,0.734-2.719c0-0.402-0.03-0.689-0.086-0.862c0.518-0.46,0.92-1.022,1.209-1.685
		c0.287-0.661,0.531-1.336,0.734-2.026c0.201-0.693,0.401-1.383,0.604-2.075c0.201-0.689,0.475-1.321,0.82-1.898
		C53.803,42.584,54.163,41.777,54.309,40.915z"/>
	<path display="inline" fill="#FFFFFF" d="M82.749,60.781l0.689-0.43c0.864-0.805,1.438-1.666,1.726-2.588
		c0.288-0.924,0.633-1.873,1.037-2.851l-0.949-0.259c-0.807,0.692-1.455,1.237-1.942,1.641c-0.49,0.402-0.951,0.75-1.382,1.035
		c-0.431,0.287-0.893,0.574-1.381,0.863c-0.489,0.289-1.165,0.662-2.028,1.123c-0.635,0.344-1.181,0.59-1.64,0.734
		c-0.461,0.143-0.979,0.301-1.554,0.473c-0.634,0.461-1.165,0.764-1.596,0.906c-0.431,0.145-0.821,0.232-1.166,0.26
		c-0.345,0.029-0.691,0.057-1.036,0.088c-0.344,0.027-0.749,0.156-1.208,0.385c-0.116,0.061-0.289,0.088-0.518,0.088
		c-0.29,0-0.562-0.027-0.821-0.088c-0.258-0.055-0.475-0.084-0.647-0.084c-0.172,0-0.432,0.084-0.776,0.26
		c-0.057,0-0.145-0.057-0.26-0.176l-0.431-0.084c-0.92,0-1.654-0.1-2.201-0.301c-0.548-0.203-1.195-0.447-1.942-0.734
		c-0.116-0.174-0.172-0.375-0.172-0.605s-0.087-0.346-0.259-0.346c-0.75-0.576-1.123-1.094-1.123-1.553
		c0-0.346,0.157-0.664,0.475-0.949c0.315-0.289,0.69-0.564,1.122-0.822c0.432-0.258,0.833-0.518,1.209-0.777
		c0.374-0.258,0.617-0.531,0.734-0.818c0.459-0.115,0.848-0.303,1.165-0.561c0.316-0.259,0.619-0.445,0.907-0.562
		c0.345,0,0.604-0.1,0.776-0.302c0.172-0.2,0.315-0.432,0.432-0.691c0.115-0.259,0.216-0.502,0.302-0.733
		c0.085-0.23,0.244-0.346,0.475-0.346c0.172,0.06,0.402,0.086,0.689,0.086c0.402,0,0.748-0.112,1.036-0.343
		c0.287-0.23,0.59-0.477,0.906-0.735c0.315-0.257,0.632-0.505,0.949-0.735c0.316-0.228,0.704-0.343,1.167-0.343
		c0.632-0.634,1.436-1.225,2.416-1.77c0.978-0.546,1.555-1.195,1.727-1.944c0.574-0.4,1.064-0.748,1.467-1.035
		c0.401-0.289,0.762-0.589,1.079-0.905c0.316-0.316,0.648-0.648,0.993-0.994c0.345-0.345,0.777-0.748,1.295-1.21
		c0.402-0.458,0.848-1.048,1.338-1.769c0.488-0.719,0.935-1.467,1.337-2.244c0.402-0.775,0.734-1.524,0.993-2.244
		c0.259-0.719,0.389-1.339,0.389-1.855c0-0.461-0.087-0.964-0.259-1.511c-0.172-0.546-0.403-0.907-0.691-1.078
		c-0.288-0.057-0.532-0.13-0.733-0.214c-0.203-0.088-0.418-0.131-0.647-0.131c-0.172,0-0.376,0.058-0.604,0.172
		c-0.115-0.287-0.274-0.459-0.476-0.517c-0.201-0.058-0.417-0.086-0.646-0.086c-0.346,0-0.706,0.043-1.079,0.129
		c-0.376,0.087-0.706,0.13-0.993,0.13l0.173-0.086l-1.554,0.086c-0.69,0.058-1.166,0.215-1.425,0.474
		c-0.258,0.259-0.647,0.39-1.165,0.39c-0.289,0-0.547-0.029-0.777-0.086c-0.979,0.345-1.87,0.618-2.676,0.82
		c-0.807,0.202-1.526,0.678-2.159,1.425c-0.403,0.057-0.72,0.159-0.948,0.303c-0.23,0.143-0.446,0.301-0.648,0.473
		c-0.202,0.173-0.431,0.332-0.689,0.475c-0.259,0.145-0.592,0.214-0.993,0.214c-0.69,0.692-1.424,1.225-2.202,1.598
		c-0.777,0.376-1.597,0.85-2.459,1.424c-1.324,1.612-2.72,3.208-4.187,4.789c-1.467,1.584-2.576,3.295-3.323,5.136
		c-0.862,0.576-1.439,1.54-1.726,2.893c-0.289,1.353-0.691,2.575-1.209,3.667c0,0.921,0.015,1.857,0.043,2.806
		c0.028,0.951,0.13,1.855,0.302,2.717c0.172,0.863,0.432,1.672,0.777,2.42c0.345,0.746,0.833,1.352,1.467,1.811
		c0.345,0.117,0.661,0.318,0.949,0.605c0.288,0.289,0.605,0.592,0.949,0.908c0.345,0.314,0.704,0.588,1.079,0.82
		c0.374,0.229,0.82,0.344,1.339,0.344c0.286,0,0.518-0.029,0.69-0.086c0,0.52,0.215,0.82,0.647,0.904
		c0.432,0.086,0.762,0.246,0.993,0.477h4.488l0.777-0.174c0.633-0.117,1.323-0.176,2.072-0.176c0.747,0,1.265-0.229,1.554-0.689
		c1.035,0,1.812-0.141,2.33-0.432c0.518-0.287,1.094-0.518,1.727-0.689c0.864-0.518,1.641-0.977,2.331-1.381
		c0.691-0.402,1.366-0.791,2.029-1.166c0.66-0.375,1.294-0.805,1.898-1.295C81.497,62.066,82.114,61.475,82.749,60.781z
		 M60.479,51.72c-0.058-0.057-0.144-0.087-0.258-0.087c-0.231,0-0.446,0.117-0.647,0.345c-0.204,0.231-0.447,0.344-0.734,0.344
		c-0.173,0-0.375-0.086-0.604-0.258c0-0.747,0.202-1.424,0.604-2.028c0.402-0.605,0.661-1.221,0.777-1.855
		c0.805-0.576,1.523-1.296,2.158-2.158c0.632-0.863,1.352-1.522,2.158-1.985c0.229-0.747,0.647-1.31,1.252-1.683
		c0.604-0.375,1.25-0.691,1.942-0.95c0.69-0.258,1.338-0.545,1.942-0.863c0.604-0.315,1.08-0.82,1.424-1.512
		c0.402,0.173,0.776,0.259,1.122,0.259c0.346,0,0.648-0.086,0.907-0.259c0.258-0.172,0.518-0.344,0.777-0.518
		c0.258-0.172,0.53-0.344,0.82-0.518c0.286-0.172,0.63-0.259,1.035-0.259l0.432,0.087c0.229-0.229,0.575-0.374,1.036-0.433
		c0.46-0.056,0.95-0.085,1.466-0.085h2.246c0.287,0.058,0.431,0.288,0.431,0.689c0,0.518-0.116,1.036-0.345,1.554
		c-1.094,1.498-2.46,2.734-4.1,3.711c-1.64,0.978-3.151,2.014-4.532,3.106c-0.635,0.174-1.181,0.419-1.64,0.735
		c-0.462,0.317-0.937,0.647-1.425,0.992c-0.491,0.345-0.993,0.678-1.511,0.994c-0.519,0.316-1.152,0.505-1.898,0.562l-2.417,0.95
		c-0.289,0.288-0.547,0.491-0.777,0.602c-0.229,0.118-0.489,0.233-0.777,0.346C61.053,51.664,60.766,51.72,60.479,51.72z"/>
	<path display="inline" fill="#FFFFFF" d="M83.669,73.928c0.432-0.773,0.851-1.48,1.251-2.113c0.288-0.922,0.662-1.799,1.123-2.631
		c0.459-0.834,0.919-1.654,1.381-2.457c0.459-0.809,0.862-1.627,1.209-2.463c0.345-0.832,0.573-1.711,0.689-2.631
		c0.519-0.463,0.893-0.936,1.122-1.424c0.229-0.488,0.433-0.996,0.604-1.512c0.173-0.518,0.374-1.051,0.605-1.596
		c0.228-0.547,0.574-1.08,1.036-1.598c0.115-1.208,0.475-2.245,1.079-3.108c0.604-0.864,1.165-1.783,1.683-2.761
		c0.115-0.69,0.244-1.193,0.387-1.511c0.144-0.314,0.289-0.574,0.433-0.777c0.144-0.199,0.259-0.4,0.345-0.604
		c0.086-0.201,0.129-0.561,0.129-1.079v-0.69c0.978-1.151,1.74-2.432,2.287-3.842c0.547-1.41,1.224-2.833,2.03-4.272
		c0.287-0.634,0.502-1.265,0.646-1.899c0.143-0.634,0.389-1.266,0.734-1.899c0.345-0.114,0.574-0.315,0.691-0.605
		c0.114-0.287,0.201-0.606,0.258-0.949c0.057-0.344,0.114-0.676,0.173-0.992c0.057-0.316,0.143-0.59,0.259-0.822
		c0.633-0.344,1.108-0.919,1.425-1.725c0.314-0.806,0.53-1.611,0.648-2.417c0.459-0.403,0.934-1.136,1.423-2.202
		c0.49-1.064,0.964-2.187,1.423-3.367c0.46-1.179,0.936-2.286,1.425-3.322c0.488-1.036,0.963-1.755,1.425-2.159
		c0-0.287,0.158-0.776,0.474-1.466c0.315-0.691,0.648-1.453,0.993-2.288c0.345-0.833,0.675-1.653,0.994-2.459
		c0.316-0.805,0.475-1.495,0.475-2.074c0.689-0.459,1.236-1.164,1.641-2.114c0.4-0.947,0.689-1.824,0.862-2.631l-0.777-0.173
		c-0.231-0.057-0.446-0.086-0.646-0.086c-0.203,0-0.39,0-0.562,0c-0.921,0-1.67,0.145-2.244,0.431
		c-0.576,0.289-1.267,0.547-2.071,0.776c-0.635,0.462-1.295,0.749-1.987,0.863c-0.689,0.117-1.366,0.246-2.026,0.39
		c-0.664,0.145-1.269,0.36-1.814,0.646c-0.548,0.289-0.963,0.777-1.252,1.468c0.289,0.404,0.605,0.633,0.951,0.691
		c0.344,0.057,0.863,0.085,1.553,0.085c0.229,0,0.359,0.116,0.389,0.346c0.028,0.229,0.129,0.344,0.301,0.344
		c0.115,0,0.201,0.03,0.26,0.088c0,0.458-0.203,0.964-0.604,1.509c-0.403,0.547-0.662,1.137-0.777,1.769
		c-0.462,1.209-1.036,2.664-1.727,4.36c-0.69,1.699-1.411,3.453-2.158,5.265c-0.75,1.813-1.497,3.57-2.245,5.266
		c-0.748,1.698-1.41,3.15-1.984,4.359c-0.174,1.265-0.534,2.359-1.079,3.279c-0.548,0.921-0.964,2.015-1.252,3.28
		c-0.634,0.807-1.036,1.626-1.208,2.46c-0.173,0.835-0.548,1.655-1.122,2.462c-0.232,0.805-0.418,1.422-0.562,1.854
		c-0.145,0.433-0.273,0.835-0.389,1.208c-0.117,0.376-0.216,0.793-0.302,1.253c-0.085,0.462-0.216,1.093-0.388,1.9
		c-1.381,2.473-2.534,5.004-3.453,7.594c-0.863,2.59-1.828,5.094-2.892,7.51c-1.064,2.416-1.798,5.006-2.201,7.768
		c-0.345,0.346-0.574,0.717-0.691,1.123c-0.114,0.4-0.185,0.82-0.215,1.252c-0.029,0.432-0.044,0.861-0.044,1.295
		c0,0.43-0.055,0.818-0.17,1.164C82.564,75.152,83.239,74.707,83.669,73.928z"/>
	<path display="inline" fill="#FFFFFF" d="M147.685,15.581c0.66,0.375,1.395,0.562,2.199,0.562c0.461,0,0.952-0.086,1.47-0.259
		c0.229-0.287,0.53-0.475,0.905-0.561c0.374-0.087,0.79-0.131,1.252-0.131l1.985,0.086c0.46,0,0.806-0.028,1.034-0.086
		c0.231-0.288,0.693-0.432,1.382-0.432h3.972c1.034-0.344,2.171-0.546,3.408-0.604c1.236-0.058,2.474-0.101,3.713-0.13
		c1.235-0.027,2.43-0.086,3.581-0.173c1.149-0.088,2.158-0.272,3.021-0.561c0.175-0.46,0.547-0.691,1.123-0.691
		c0.4,0,0.806,0.059,1.207,0.172c0.403,0.116,0.833,0.172,1.295,0.172c-0.115,0.116-0.201,0.173-0.259,0.173
		c0.115,0,0.201,0.017,0.259,0.044c0.058,0.029,0.145,0.043,0.261,0.043c0.518,0,0.978-0.1,1.379-0.303
		c0.401-0.2,0.894-0.358,1.47-0.473c0.229-0.346,0.572-0.519,1.034-0.519l1.985,0.173c0.573,0,1.004-0.114,1.295-0.345
		c0.229,0.115,0.572,0.171,1.034,0.171c0.748,0,1.438-0.156,2.07-0.473c0.635-0.314,1.354-0.473,2.159-0.473
		c0.575,0,1.093,0.115,1.554,0.343c0.346-0.287,0.733-0.503,1.165-0.646s0.82-0.287,1.167-0.432
		c0.344-0.143,0.646-0.315,0.902-0.518c0.261-0.202,0.42-0.531,0.479-0.993c-0.636-0.403-1.355-0.618-2.159-0.647
		c-0.809-0.027-1.584-0.1-2.332-0.215V7.685c-2.187-0.114-4.271-0.202-6.258-0.259c-1.986-0.056-4.014-0.143-6.085-0.258
		l0.173-0.259h-1.381c-0.634,0-0.979,0.145-1.037,0.43c-0.229-0.055-0.46-0.07-0.69-0.043c-0.229,0.031-0.46-0.042-0.689-0.215
		l0.259-0.171h-14.673l-0.519,0.344c0.056,0-0.029-0.057-0.26-0.173l0.172-0.173h-0.862v0.345l-1.468-0.087
		c-1.035-0.055-2.07-0.029-3.106,0.087c-1.034,0.116-2.044,0.202-3.021,0.259c-0.346,0.116-0.677,0.318-0.991,0.604
		c-0.317,0.289-0.767,0.433-1.338,0.433l-0.434,0.259c-0.979,0.575-1.899,1.265-2.763,2.071c-0.863,0.807-1.293,1.871-1.293,3.193
		C146.604,14.705,147.021,15.207,147.685,15.581z"/>
	<path display="inline" fill="#FFFFFF" d="M234.854,42.513c0-0.546,0.145-1.049,0.431-1.512c0.119-0.401,0.219-0.789,0.305-1.165
		c0.087-0.375,0.129-0.735,0.129-1.078c0-0.634-0.258-1.095-0.775-1.383c0.056-0.459,0.113-0.646,0.172-0.56
		c0.057,0.084,0.145-0.015,0.259-0.303c0.114-0.287,0.187-0.532,0.216-0.734c0.028-0.201,0.058-0.374,0.087-0.519
		c0.029-0.143,0.042-0.185,0.042-0.128c0.059-0.116,0.087-0.403,0.087-0.864c0-0.402-0.058-0.778-0.173-1.123
		c-0.115-0.344-0.345-0.574-0.689-0.69c-0.346-0.115-0.636-0.173-0.865-0.173c-0.286,0-0.573,0.044-0.863,0.129
		c-0.288,0.086-1.831-1.164-1.932-1.053c0.021-0.32-0.504,0.349-0.791-0.112c-0.172-0.401-0.418-0.691-0.734-0.863
		c-0.317-0.173-0.661-0.288-1.034-0.345c-0.378-0.057-0.765-0.1-1.164-0.128c-0.406-0.03-0.779-0.158-1.125-0.389
		c-2.013,0.289-3.726,0.82-5.136,1.597c-1.411,0.776-2.891,1.654-4.443,2.631l0.173,0.173c-1.786,1.096-3.396,2.331-4.835,3.712
		c-1.438,1.38-2.907,2.82-4.402,4.315l-1.292,1.296c-0.348,0.287-0.605,0.703-0.777,1.25c-0.173,0.548-0.549,0.82-1.124,0.82
		c-0.748,0.922-1.524,1.973-2.33,3.152c-0.806,1.18-1.523,2.446-2.158,3.797c-0.635,1.354-1.163,2.748-1.595,4.189
		c-0.435,1.438-0.647,2.875-0.647,4.314c0,1.553,0.288,2.99,0.863,4.316c0.114,0.113,0.258,0.17,0.431,0.17l0.605-0.084
		c0.343,0,0.516,0.172,0.516,0.518c0.346,0.057,0.675,0.102,0.992,0.129c0.317,0.031,0.617,0.045,0.909,0.045
		c0.802,0,1.538-0.088,2.2-0.258c0.661-0.176,1.322-0.391,1.986-0.648c0.659-0.262,1.337-0.533,2.026-0.82
		c0.69-0.287,1.438-0.545,2.245-0.777c0.861-0.461,1.683-0.979,2.46-1.555c0.776-0.57,1.252-1.18,1.422-1.811
		c0.692-0.059,1.367-0.291,2.029-0.691c0.663-0.4,1.339-0.863,2.027-1.383c0.692-0.516,1.367-1.049,2.03-1.596
		c0.661-0.545,1.337-1.049,2.026-1.509c0.175-0.575,0.446-1.049,0.82-1.425c0.376-0.374,0.766-0.721,1.166-1.037
		c0.403-0.315,0.805-0.646,1.208-0.99c0.4-0.348,0.692-0.778,0.866-1.296c0.633-0.56,0.456-0.328,0.981-0.937
		c-0.453,0.562-0.154,0.284-0.332,0.807c-0.405,1.18-0.635,2.432-0.69,3.754c-1.154,2.302-2.174,4.705-3.065,7.207
		c-0.89,2.504-1.742,4.85-2.545,7.037c-0.117-0.115-0.202-0.174-0.258-0.174c-0.635,1.494-1.252,2.934-1.856,4.314
		c-0.604,1.383-1.396,2.793-2.374,4.23c-0.518,0.807-1.135,1.695-1.858,2.674c-0.718,0.98-1.249,1.988-1.593,3.025
		c-0.81,0.516-1.57,1.307-2.289,2.371s-1.481,2.084-2.285,3.062c-1.154,1.783-2.606,3.109-4.362,3.975
		c-1.753,0.863-3.465,1.723-5.135,2.588c-0.688,0.115-1.396,0.215-2.114,0.305c-0.719,0.084-1.452,0.129-2.2,0.129
		c-1.037,0-2.015-0.088-2.936-0.262c-0.056-0.285-0.201-0.459-0.431-0.518c-0.23-0.057-0.434-0.145-0.605-0.258
		c-0.228-0.23-0.458-0.348-0.69-0.348c-0.287,0-0.545,0.232-0.776,0.691c-0.115,0.23-0.172,0.432-0.172,0.605
		c0.287,1.035,0.688,1.943,1.207,2.719c0.519,0.777,1.354,1.395,2.503,1.855l-0.086,0.174l1.554,0.689l0.433-0.518
		c0.343,0.176,0.603,0.305,0.774,0.391c0.174,0.084,0.316,0.273,0.434,0.561c0.283,0.057,0.634,0.113,1.033,0.172
		c0.405,0.057,0.807,0.088,1.208,0.088c0.692,0,1.18-0.117,1.47-0.348c1.437-0.287,2.702-0.789,3.796-1.508
		c1.094-0.721,2.215-1.396,3.367-2.029c0.573-0.404,1.224-0.979,1.942-1.727c0.719-0.746,1.425-1.555,2.114-2.418
		c0.692-0.863,1.354-1.727,1.984-2.59c0.632-0.863,1.18-1.639,1.643-2.328c0.518-0.691,1.035-1.457,1.554-2.287
		c0.518-0.836,0.831-1.688,0.949-2.549c1.151-0.92,2.084-2.113,2.804-3.58c0.722-1.467,1.541-2.834,2.461-4.1
		c0.058-0.061,0.086-0.176,0.086-0.346l-0.174-1.295c0-0.578,0.345-0.863,1.037-0.863c0.286-0.059,0.488-0.303,0.604-0.734
		c0.117-0.434,0.315-0.734,0.605-0.904c0.864-2.016,1.781-3.986,2.762-5.914c0.978-1.928,1.697-3.842,2.157-5.74
		c0.746-1.092,1.354-2.287,1.813-3.58c0.461-1.296,0.849-2.604,1.164-3.928c0.316-1.323,0.633-2.647,0.949-3.971
		s0.705-2.559,1.165-3.711C234.71,43.564,234.854,43.059,234.854,42.513z M226.092,42.986c-0.345,0.689-0.777,1.325-1.295,1.899
		c-0.519,0.576-1.065,1.138-1.64,1.682c-0.573,0.548-1.093,1.198-1.553,1.944c-0.577,0.057-1.066,0.245-1.47,0.562
		c-0.402,0.317-0.791,0.661-1.163,1.035c-0.376,0.376-0.764,0.75-1.168,1.123c-0.401,0.376-0.861,0.647-1.378,0.818
		c-0.808,0.693-1.931,1.484-3.367,2.375c-1.439,0.895-2.649,1.627-3.626,2.2c-0.807,0.117-1.523,0.318-2.158,0.605
		c-0.634,0.291-1.324,0.549-2.07,0.777c-0.289,0-0.519-0.027-0.691-0.086c-0.171-0.057-0.633-0.26-1.382-0.602v-0.607
		c0-1.438,0.344-2.849,1.036-4.23c0.69-1.379,1.495-2.446,2.416-3.192c0.287-0.634,0.662-1.195,1.124-1.685
		c0.459-0.489,0.934-0.948,1.421-1.38c0.489-0.431,0.937-0.876,1.338-1.338c0.404-0.458,0.692-1.006,0.864-1.64
		c0.23,0.115,0.375,0.173,0.433,0.173c0.287,0,0.546-0.187,0.776-0.562c0.23-0.373,0.545-0.561,0.95-0.561
		c0.345-0.519,0.892-0.963,1.64-1.338c0.747-0.373,1.438-0.702,2.071-0.992c0.29-0.572,0.649-0.949,1.08-1.123
		c0.433-0.173,0.875-0.302,1.338-0.389c0.46-0.086,0.906-0.186,1.337-0.301c0.433-0.114,0.763-0.433,0.993-0.951
		c0.46,0,0.979,0.145,1.555,0.432c0.402-0.288,0.775-0.432,1.121-0.432c0.287,0,0.548,0.087,0.778,0.259
		c0.229,0.173,0.517,0.403,0.863,0.692c0.17,0.114,0.258,0.343,0.258,0.689l-0.088,0.865l0.174,0.774
		C226.609,41.462,226.436,42.295,226.092,42.986z"/>
	<path display="inline" fill="#FFFFFF" d="M268.577,45.732l0.022-3.015l-0.354-2.714c0.113-0.815,0.008-1.534-0.776-1.949
		l-2.61-4.167c-1.079-1.047-2.647-1.787-4.678-2.229l-1.538-0.155c-0.482,0.556-1.02,1.064-2.142,1.041
		c-0.985,0.148-2.001,0.267-2.353,0.988l-1.996-0.114c-1.229-0.081-2.49-0.04-3.923,0.667c-2.056,0.526-4.328,1.867-6.583,3.166
		c-2.373,0.935-1.914,2.176-3.427,3.415c-1.913,2.617-2.748,5.771-3.826,8.802c-0.88,2.499-0.092,3.844,1.7,4.49
		c0.689,0.727,1.323,1.667,1.912,2.792c0.018,2.061,0.991,2.172,1.806,2.613c0.483,0.719,1.164,2.08,1.724,3.225
		c1.119,1.898,2.554,3.41,4.536,4.262c1.795,0.84,3.583,1.924,5.407,1.145c1.68,0.73,3.365,1.049,5.073,0.107
		c1.565-0.934,3.022-1.451,4.383-1.584l3.81-3.16c1.693-0.246,1.533-2.311,1.53-4.219c0.448-2.723,1.647-5.448,1.336-8.164
		l0.735-3.155C269.231,47.612,268.871,46.654,268.577,45.732z M263.085,48.281l-0.499,2.148c0.212,1.851-0.604,3.712-0.913,5.569
		c0.004,1.303,0.114,2.707-1.041,2.875l-2.598,2.154c-0.928,0.094-1.922,0.443-2.987,1.08c-1.165,0.643-2.315,0.426-3.461-0.072
		c-1.244,0.529-2.463-0.207-3.686-0.785c-1.354-0.578-2.33-1.609-3.092-2.902c-0.384-0.781-0.848-1.705-1.177-2.199
		c-0.553-0.303-1.22-0.379-1.233-1.779c-0.398-0.768-0.83-1.41-1.302-1.905c-1.22-0.437-1.759-1.354-1.159-3.061
		c0.735-2.065,1.304-4.215,2.609-5.999c1.031-0.846,0.718-1.694,2.335-2.331c1.54-0.887,3.086-1.8,4.49-2.157
		c0.975-0.481,1.835-0.51,2.675-0.455l1.358,0.079c0.242-0.493,0.935-0.572,1.606-0.673c0.763,0.015,1.13-0.332,1.46-0.712
		l1.046,0.108c1.386,0.302,2.456,0.806,3.189,1.52l1.781,2.84c0.532,0.281,0.605,0.771,0.529,1.328l0.24,1.849l-0.012,2.057
		C263.446,47.486,263.689,48.139,263.085,48.281z"/>
	<path display="inline" fill="#FFFFFF" d="M195.101,63.357c1.697-0.246,1.536-2.311,1.531-4.219
		c0.449-2.723,1.649-5.448,1.339-8.164l0.733-3.155c0.884-0.208,0.524-1.167,0.231-2.088l0.022-3.015l-0.355-2.714
		c0.113-0.815,0.009-1.534-0.775-1.949l-2.61-4.167c-1.079-1.047-2.647-1.787-4.679-2.229l-1.537-0.155
		c-0.482,0.556-1.021,1.064-2.141,1.041c-0.984,0.148-2.001,0.267-2.354,0.988l-1.995-0.114c-1.231-0.081-2.491-0.04-3.923,0.667
		c-0.817,0.209-1.671,0.55-2.541,0.963c-1.481,0.12-4.136,0.342-4.48,0.515c-0.382,0.19-0.765,0.407-1.146,0.637
		c-0.652-0.091-1.265-0.176-1.815-0.248c-0.662-0.087-1.338-0.101-2.027-0.044l-1.846,0.259l-0.085,0.345h-0.347
		c-0.172,0-0.316-0.056-0.43-0.171c0.055-0.058,0.099-0.088,0.128-0.088s0.072-0.028,0.13-0.086h-0.776
		c-0.404,0-0.604,0.116-0.604,0.345c-0.117-0.056-0.291-0.086-0.519-0.086c-0.29,0-0.547,0.03-0.777,0.086
		c-0.23,0.058-0.462,0.086-0.69,0.086c-0.403,0-0.721-0.144-0.949-0.432l-0.174,0.258c-0.171,0.058-0.375,0.086-0.604,0.086
		c-0.634,0-1.035-0.402-1.209-1.208c1.036-1.496,2-3.151,2.891-4.962c0.894-1.813,1.798-3.467,2.721-4.964
		c0.632-0.805,1.091-1.683,1.382-2.631c0.286-0.95,0.605-1.944,0.947-2.979c-0.287-0.115-0.504-0.303-0.646-0.561
		c-0.145-0.259-0.36-0.39-0.647-0.39c-0.173,0-0.316,0.029-0.433,0.086c-0.057-0.461-0.23-0.734-0.516-0.82
		c-0.29-0.086-0.577-0.129-0.864-0.129h-0.52c-0.401,0-0.634-0.114-0.689-0.346c-0.462,0-0.851,0.074-1.164,0.215
		c-0.317,0.146-0.605,0.304-0.865,0.475c-0.258,0.173-0.533,0.345-0.819,0.519c-0.287,0.173-0.633,0.344-1.035,0.518
		c-0.116,0.575-0.387,1.108-0.819,1.598c-0.432,0.488-0.646,0.991-0.646,1.51c0,0.345,0.113,0.635,0.345,0.863
		c0,0.231-0.103,0.375-0.303,0.432c-0.203,0.058-0.389,0.086-0.561,0.086c-0.116,0.057-0.332,0.23-0.648,0.517
		c-0.316,0.29-0.474,0.635-0.474,1.035c0,0.232,0.084,0.462,0.259,0.693c-0.231,0.057-0.36,0.273-0.389,0.646
		c-0.031,0.376-0.188,0.562-0.473,0.562c-0.117,0-0.23-0.028-0.349-0.085c-0.979,1.611-1.798,3.308-2.46,5.091
		c-0.662,1.784-1.309,3.424-1.941,4.921l-0.778-0.086c-1.322,0-2.475,0.388-3.452,1.165c-0.695,0.554-1.304,1.038-1.825,1.461
		c0.071-0.136,0.145-0.271,0.188-0.426c0.112-0.433,0.201-0.892,0.259-1.38c0.057-0.489,0.114-0.964,0.171-1.425
		c0.058-0.459,0.23-0.864,0.52-1.208c-0.173-0.344-0.289-0.718-0.345-1.123c-0.059-0.402-0.102-0.79-0.132-1.165
		c-0.027-0.374-0.114-0.747-0.258-1.123c-0.145-0.374-0.418-0.734-0.82-1.079c-0.115-0.346-0.301-0.589-0.561-0.733
		c-0.259-0.144-0.549-0.26-0.863-0.346c-0.317-0.085-0.619-0.172-0.906-0.259c-0.289-0.086-0.547-0.245-0.777-0.474l-0.173,0.259
		c-2.07,0.289-4.143,0.764-6.214,1.424c-2.071,0.662-3.683,1.482-4.833,2.459h-0.172c-0.461,0-0.734,0.116-0.82,0.344
		c-0.087,0.232-0.419,0.377-0.993,0.433c-2.131,1.382-4.159,2.978-6.085,4.791c-1.929,1.813-3.813,3.611-5.653,5.395
		c-0.231-0.114-0.347-0.315-0.347-0.604v-0.691c0.633-2.013,1.554-3.971,2.763-5.871c1.208-1.898,2.214-3.825,3.022-5.782
		c-0.116-0.056-0.203-0.173-0.259-0.345c-0.117-0.229-0.173-0.46-0.173-0.69s0.099-0.389,0.301-0.475
		c0.201-0.087,0.446-0.159,0.735-0.216c0.286-0.056,0.545-0.143,0.776-0.259c0.229-0.115,0.402-0.344,0.519-0.689
		c0.114-0.174,0.172-0.432,0.172-0.777c0-0.402-0.086-0.776-0.259-1.121c-0.172-0.346-0.344-0.575-0.517-0.691
		c-0.29-0.058-0.591-0.1-0.907-0.13c-0.317-0.029-0.62-0.043-0.906-0.043c-0.979,0-1.67,0.145-2.072,0.432
		c-1.323,0-2.317,0.301-2.978,0.906c-0.662,0.604-1.208,1.337-1.639,2.202c-0.433,0.863-0.808,1.756-1.122,2.675
		c-0.317,0.923-0.764,1.728-1.338,2.417c-0.059,0.691-0.231,1.338-0.518,1.942c-0.289,0.604-0.593,1.195-0.907,1.771
		c-0.316,0.575-0.619,1.151-0.906,1.726c-0.288,0.576-0.489,1.207-0.604,1.898c-0.345,0.345-0.577,0.749-0.69,1.208
		c-0.117,0.463-0.216,0.907-0.304,1.337c-0.085,0.435-0.186,0.867-0.302,1.295c-0.116,0.433-0.375,0.819-0.776,1.165
		c-0.289,0.808-0.533,1.511-0.733,2.114c-0.203,0.605-0.418,1.194-0.648,1.771c-0.229,0.576-0.489,1.149-0.777,1.726
		c-0.288,0.575-0.633,1.238-1.035,1.984c-0.172,0.114-0.274,0.273-0.303,0.475c-0.029,0.203-0.058,0.404-0.086,0.605
		c-0.03,0.201-0.074,0.389-0.13,0.561c-0.057,0.172-0.172,0.291-0.346,0.344c0,0.287-0.101,0.535-0.302,0.736
		c-0.202,0.201-0.301,0.389-0.301,0.561c0,0.059,0.056,0.203,0.173,0.432c-0.462,0.289-0.851,0.721-1.167,1.293
		c-0.316,0.576-0.62,1.266-0.906,2.072h-0.603c-1.21,0-2.115-0.215-2.719-0.646c-0.605-0.432-1.194-0.648-1.77-0.648
		c-0.46,0-0.92,0.23-1.381,0.693c-0.633,0.461-0.978,1.078-1.036,1.852c-0.057,0.777-0.23,1.57-0.518,2.375
		c0,0.518,0.23,0.879,0.691,1.08c0.459,0.203,1.007,0.332,1.64,0.389c0.634,0.057,1.282,0.086,1.942,0.086
		c0.661,0,1.164,0.086,1.511,0.258c-0.691,1.266-1.353,2.719-1.986,4.359c-0.632,1.641-1.264,3.178-1.899,4.617
		c-0.057,0.461-0.185,0.91-0.387,1.34c-0.201,0.434-0.433,0.863-0.691,1.297c-0.259,0.428-0.487,0.859-0.69,1.291
		c-0.202,0.434-0.303,0.877-0.303,1.338v0.262c-0.632,1.436-1.251,2.729-1.854,3.883c-0.605,1.148-1.079,2.559-1.425,4.229
		c0,0.174-0.129,0.33-0.388,0.473c-0.258,0.146-0.388,0.332-0.388,0.562c0,0.057,0.058,0.143,0.172,0.26
		c-0.401,0.518-0.676,1.035-0.82,1.555c-0.142,0.514-0.272,1.031-0.387,1.553c-0.115,0.516-0.26,1.064-0.433,1.639
		c-0.172,0.574-0.459,1.152-0.863,1.729c0,0.977-0.215,1.84-0.646,2.588c-0.432,0.748-0.791,1.494-1.079,2.244
		c0.23,0.229,0.345,0.402,0.345,0.518c0,0.229-0.071,0.402-0.216,0.518c-0.142,0.115-0.215,0.256-0.215,0.432
		c0,0.174,0.086,0.287,0.259,0.344c0.172,0.059,0.317,0.088,0.432,0.088c0.403,0,0.705-0.174,0.906-0.52
		c0.202-0.344,0.418-0.66,0.647-0.949c0.575-0.979,1.079-1.883,1.511-2.719s0.993-1.768,1.682-2.803
		c0.461-0.982,0.792-1.729,0.994-2.248c0.202-0.518,0.589-1.234,1.165-2.156c0.231-0.23,0.375-0.459,0.432-0.688
		c0.058-0.234,0.117-0.477,0.172-0.736c0.059-0.26,0.13-0.504,0.215-0.734c0.088-0.23,0.275-0.432,0.562-0.605v-0.258
		c0-0.344,0.086-0.664,0.259-0.949c0.173-0.289,0.375-0.547,0.604-0.775c0.23-0.232,0.461-0.477,0.69-0.736
		c0.231-0.258,0.375-0.531,0.432-0.82c1.093-1.898,2.101-3.768,3.02-5.609c0.921-1.842,1.698-3.713,2.331-5.609
		c0.575-0.518,1.021-1.123,1.338-1.814c0.315-0.689,0.604-1.41,0.863-2.16c0.259-0.746,0.546-1.48,0.863-2.199
		c0.315-0.719,0.734-1.336,1.252-1.854c0.459,0.113,0.777,0.172,0.948,0.172c0.116,0,0.23-0.086,0.346-0.26
		c0.172,0.059,0.373,0.088,0.604,0.088c0.287,0,0.488-0.059,0.604-0.174c0.115-0.115,0.216-0.244,0.301-0.387
		c0.086-0.145,0.201-0.291,0.346-0.434c0.142-0.143,0.388-0.215,0.733-0.215l0.346,0.777h0.258c0.461,0,0.994-0.129,1.598-0.389
		c0.604-0.258,1.05-0.561,1.337-0.908c0.174,0.059,0.402,0.086,0.691,0.086c0.806,0,1.582-0.197,2.33-0.602
		c0.748-0.402,1.469-0.748,2.158-1.037c0.518,0,0.777-0.156,0.777-0.475c0-0.314,0.172-0.473,0.518-0.473h0.259
		c0.056,0.229,0.2,0.344,0.432,0.344c0.287,0,0.575-0.129,0.863-0.387c0.286-0.26,0.545-0.391,0.777-0.391h0.173
		c0.345-0.344,0.775-0.52,1.293-0.52s0.778-0.256,0.778-0.773h0.432c0.746,0,1.351-0.258,1.812-0.777
		c1.324-0.229,2.603-0.848,3.841-1.855c1.236-1.008,2.546-1.885,3.927-2.631c0.519-0.75,1.122-1.325,1.813-1.727
		c0.69-0.404,1.178-1.006,1.466-1.813c0.748-0.46,1.596-1.222,2.547-2.288c0.948-1.064,1.51-2.288,1.682-3.668
		c0.634-0.23,1.195-0.648,1.683-1.252c0.241-0.297,0.456-0.599,0.647-0.9c0.189,0.088,0.311,0.198,0.346,0.339
		c0.229-0.229,0.519-0.374,0.863-0.432c0.346-0.057,0.746-0.086,1.209-0.086c0.458,0,0.874,0.016,1.25,0.043
		c0.374,0.031,0.705,0.075,0.992,0.131c-0.344,0.518-0.589,1.05-0.733,1.596c-0.145,0.548-0.274,1.094-0.389,1.64
		c-0.114,0.548-0.271,1.066-0.475,1.555c-0.203,0.488-0.53,0.905-0.99,1.252c-0.347,1.208-0.692,2.245-1.037,3.106
		c-0.345,0.864-0.663,1.686-0.95,2.459c-0.288,0.777-0.561,1.598-0.82,2.461c-0.258,0.863-0.473,1.898-0.647,3.107
		c-0.518,0.518-0.893,1.035-1.121,1.553c-0.231,0.518-0.419,1.035-0.562,1.553c-0.145,0.52-0.274,1.068-0.388,1.641
		c-0.116,0.574-0.317,1.18-0.604,1.814c-0.632,0.633-0.978,1.467-1.036,2.504c-0.056,1.035-0.144,2.039-0.259,3.021
		c-0.402,0.344-0.675,0.717-0.819,1.119c-0.143,0.402-0.244,0.82-0.302,1.254c-0.058,0.432-0.129,0.863-0.216,1.295
		c-0.087,0.434-0.272,0.848-0.561,1.252c0.116,0.744,0.549,1.264,1.295,1.551l0.086-0.084c0.29-0.172,0.576-0.404,0.864-0.689
		c0.288-0.289,0.43-0.637,0.43-1.035c0-0.232-0.056-0.432-0.171-0.605c1.149-1.322,1.984-2.734,2.502-4.23
		c0.519-1.496,1.179-2.936,1.985-4.316c0.115-0.688,0.259-1.207,0.432-1.551c0.173-0.346,0.388-0.664,0.646-0.951
		s0.533-0.59,0.821-0.906c0.287-0.316,0.575-0.789,0.862-1.422c0.347-0.23,0.546-0.562,0.604-0.996
		c0.058-0.432,0.087-0.861,0.087-1.293s0.058-0.834,0.174-1.207c0.113-0.373,0.431-0.648,0.949-0.82c0-0.576,0.143-1.08,0.432-1.512
		c0.287-0.432,0.574-0.834,0.862-1.209c0.288-0.371,0.562-0.787,0.819-1.25c0.261-0.461,0.39-1.005,0.39-1.64V53.95l0.345-0.519
		c0.634-0.976,1.167-1.854,1.6-2.632c0.431-0.777,0.99-1.856,1.682-3.237v-0.347c0-0.343,0.099-0.603,0.301-0.775
		c0.202-0.171,0.404-0.359,0.605-0.56c0.2-0.203,0.402-0.433,0.604-0.691c0.2-0.259,0.303-0.617,0.303-1.078
		c0.345-0.116,0.787-0.174,1.336-0.174c0.546,0,0.85-0.143,0.906-0.432l1.122,0.085c0.692,0.06,1.368,0.03,2.028-0.085
		c0.661-0.114,1.324-0.243,1.984-0.387c0.661-0.144,1.281-0.287,1.855-0.432c0.576-0.144,1.123-0.215,1.64-0.215h0.519
		c0.344-0.289,0.531-0.547,0.562-0.778c0.028-0.229,0.246-0.343,0.647-0.343h0.346c0.115,0.114,0.286,0.186,0.518,0.214
		c0.229,0.029,0.345,0.129,0.345,0.302v0.086l0.477-0.239c-1.441,2.388-2.194,5.117-3.133,7.755c-0.88,2.499-0.092,3.844,1.701,4.49
		c0.688,0.727,1.322,1.667,1.91,2.792c0.019,2.061,0.994,2.172,1.807,2.613c0.483,0.719,1.164,2.08,1.725,3.225
		c1.118,1.898,2.553,3.41,4.536,4.262c1.792,0.84,3.583,1.924,5.407,1.145c1.678,0.73,3.365,1.049,5.073,0.107
		c1.564-0.934,3.021-1.451,4.382-1.584L195.101,63.357z M134.954,40.829c-0.347,1.381-0.95,2.562-1.812,3.539
		c-0.404,1.498-1.009,2.706-1.814,3.625c-0.806,0.92-1.611,1.986-2.417,3.194c-0.403,0.058-0.747,0.332-1.035,0.818
		c-0.289,0.491-0.548,0.765-0.777,0.821c-1.381,1.208-3.122,2.476-5.221,3.796c-2.102,1.324-4.101,2.391-5.999,3.195
		c-0.518,0.342-0.994,0.504-1.425,0.475c-0.432-0.029-0.964,0.244-1.597,0.818c-0.518,0.119-0.893,0.188-1.122,0.217
		c-0.23,0.029-0.432,0.074-0.604,0.129c-0.173,0.057-0.375,0.1-0.604,0.131c-0.23,0.027-0.576,0.043-1.036,0.043
		c-0.288,0.229-0.69,0.402-1.208,0.516c-0.517,0.115-1.008,0.174-1.467,0.174c-0.345,0-0.647-0.041-0.906-0.129
		c-0.258-0.086-0.39-0.186-0.39-0.303c0-0.461,0.173-0.918,0.518-1.381c0.347-0.459,0.518-0.83,0.518-1.125
		c0-0.172-0.058-0.312-0.171-0.43c0.631-0.918,1.294-1.727,1.984-2.416c0.691-0.691,1.265-1.612,1.727-2.763
		c1.61-1.898,3.107-3.768,4.489-5.61c1.38-1.842,3.164-3.567,5.352-5.178c0.057-0.575,0.215-0.979,0.475-1.21
		c0.258-0.228,0.546-0.417,0.865-0.561c0.314-0.143,0.646-0.302,0.991-0.475c0.345-0.172,0.633-0.487,0.863-0.949
		c1.496-0.919,2.92-1.797,4.272-2.633c1.352-0.833,2.948-1.566,4.79-2.201c0.058-0.229,0.173-0.345,0.346-0.345
		c0.113,0,0.271,0.056,0.474,0.172c0.201,0.117,0.417,0.175,0.648,0.175c0.172,0,0.345-0.145,0.518-0.433
		c0.461,0.174,0.789,0.433,0.993,0.776c0.2,0.344,0.358,0.749,0.474,1.209C135.527,38.009,135.297,39.447,134.954,40.829z
		 M188.392,61.027c-0.927,0.094-1.921,0.443-2.985,1.08c-1.165,0.643-2.315,0.426-3.462-0.072c-1.243,0.529-2.462-0.207-3.687-0.785
		c-1.352-0.578-2.329-1.609-3.092-2.902c-0.383-0.781-0.846-1.705-1.177-2.199c-0.553-0.303-1.218-0.379-1.231-1.779
		c-0.4-0.768-0.832-1.41-1.303-1.905c-1.221-0.437-1.758-1.354-1.159-3.061c0.734-2.065,1.304-4.215,2.608-5.999
		c1.032-0.846,0.718-1.694,2.334-2.331c1.541-0.887,3.088-1.8,4.492-2.157c0.977-0.481,1.834-0.51,2.674-0.455l1.36,0.079
		c0.241-0.493,0.936-0.572,1.605-0.673c0.763,0.015,1.13-0.332,1.459-0.712l1.047,0.108c1.385,0.302,2.456,0.806,3.19,1.52
		l1.779,2.84c0.535,0.281,0.607,0.771,0.529,1.328l0.242,1.849l-0.014,2.057c0.199,0.628,0.444,1.281-0.16,1.423l-0.498,2.148
		c0.212,1.851-0.605,3.712-0.915,5.569c0.005,1.303,0.113,2.707-1.041,2.875L188.392,61.027z"/>
</g>
<path fill="#FFFFFF" d="M143.821,77.002c2.292-1.685,4.48-2.711,6.578-3.122l5.448-5.491c2.603-0.641,2.037-3.827,1.743-6.797
	c0.29-4.302,1.74-8.727,0.851-12.905l0.665-5.014c1.345-0.456,0.641-1.897,0.047-3.284l-0.421-4.692l-0.533-2.311
	c-0.074,0.048-0.142,0.106-0.194,0.186c-0.044,0.009-0.081,0.022-0.124,0.032c-0.008,0-0.015,0-0.023,0
	c-0.344,0-0.666,0.034-0.967,0.095c-0.118-0.018-0.235-0.028-0.354-0.028c-0.307,0-0.501,0.126-0.607,0.353
	c-0.045,0.021-0.085,0.045-0.129,0.066c-0.474,0.148-1.014,0.249-1.634,0.297c-0.656,0.049-1.337,0.082-2.047,0.098
	c-0.707,0.018-1.415,0.042-2.122,0.075c-0.707,0.032-1.356,0.148-1.95,0.345h-2.268c-0.396,0-0.659,0.083-0.791,0.246
	c-0.131,0.034-0.329,0.05-0.592,0.05l-1.133-0.05c-0.265,0-0.503,0.025-0.717,0.075c-0.214,0.048-0.387,0.156-0.519,0.32
	c-0.296,0.098-0.575,0.149-0.838,0.149c-0.461,0-0.88-0.107-1.259-0.32c-0.378-0.214-0.616-0.502-0.716-0.865
	c0-0.756,0.248-1.365,0.741-1.825c0.493-0.461,1.02-0.856,1.579-1.184l0.246-0.149c0.328,0,0.584-0.083,0.765-0.246
	c0.181-0.165,0.371-0.279,0.568-0.346c0.56-0.033,1.136-0.082,1.728-0.148c0.592-0.065,1.184-0.081,1.775-0.049l0.839,0.049v-0.197
	h0.493l-0.099,0.1c0.132,0.066,0.181,0.097,0.148,0.097l0.295-0.197h7.514c0.271,0.084,0.561,0.144,0.87,0.174
	c0.084,0.037,0.168,0.059,0.253,0.047c0.13-0.015,0.262-0.006,0.394,0.024c0.005-0.017-0.021-0.034-0.055-0.05
	c0.111-0.002,0.219-0.007,0.327-0.015c0.047,0.002,0.092,0.004,0.139,0.007c-0.113-0.877-0.507-1.595-1.47-1.989l-4.688-6.088
	c-1.836-1.468-4.389-2.38-7.618-2.765l-2.412-0.008c-0.668,0.938-1.427,1.812-3.177,1.945c-1.508,0.378-3.071,0.717-3.511,1.892
	l-3.124,0.125c-1.925,0.061-3.88,0.312-6,1.627c-3.124,1.13-6.452,3.556-9.769,5.918c-3.548,1.812-2.645,3.675-4.813,5.833
	c-2.583,4.36-3.405,9.391-4.625,14.269c-0.992,4.026,0.44,5.994,3.325,6.73c1.182,1.026,2.311,2.398,3.395,4.059
	c0.031,0.303,0.078,0.569,0.13,0.816v-0.018c0.272-0.579,0.518-1.243,0.741-1.994c0.221-0.748,0.536-1.412,0.945-1.992
	c0.307-1.431,0.817-2.921,1.534-4.47c0.715-1.551,1.38-3.092,1.992-4.625c0.205-0.511,0.375-0.962,0.512-1.354
	c0.135-0.392,0.254-0.767,0.357-1.125c0.102-0.356,0.221-0.715,0.357-1.073c0.137-0.358,0.324-0.757,0.563-1.2
	c0.17-0.17,0.323-0.418,0.46-0.741c0.136-0.324,0.306-0.604,0.511-0.844c0.136-0.817,0.374-1.566,0.714-2.249
	s0.647-1.361,0.919-2.044h0.103c0.307-0.681,0.58-1.303,0.818-1.864c0.239-0.562,0.46-1.099,0.663-1.611
	c0.205-0.511,0.41-1.039,0.614-1.585c0.205-0.543,0.442-1.139,0.716-1.788c0.205-0.238,0.374-0.545,0.511-0.919
	c0.134-0.374,0.281-0.749,0.434-1.125c0.153-0.374,0.324-0.723,0.511-1.046c0.187-0.324,0.434-0.589,0.741-0.792
	c0.034-0.205,0.119-0.366,0.254-0.486c0.136-0.119,0.29-0.212,0.46-0.281c0.17-0.069,0.348-0.128,0.537-0.179
	c0.187-0.05,0.35-0.128,0.486-0.23c0.271-0.067,0.459-0.103,0.562-0.103c0.204,0,0.4,0.027,0.588,0.077
	c0.186,0.052,0.399,0.094,0.638,0.126c0.033,0.104,0.136,0.206,0.307,0.308c0.17,0.103,0.324,0.223,0.46,0.358
	c-0.443,1.262-1.073,2.351-1.892,3.271v0.255c0,0.341-0.085,0.623-0.254,0.843c-0.172,0.223-0.366,0.442-0.588,0.665
	c-0.221,0.222-0.417,0.46-0.587,0.715c-0.171,0.255-0.255,0.554-0.255,0.895v0.051c-0.308,0.614-0.546,1.082-0.716,1.404
	c-0.171,0.324-0.425,0.793-0.766,1.407c-0.069,0.408-0.179,0.758-0.333,1.047c-0.153,0.289-0.315,0.579-0.486,0.869
	c-0.17,0.29-0.333,0.587-0.486,0.894c-0.153,0.308-0.247,0.665-0.281,1.073c-0.478,0.512-0.861,1.133-1.15,1.866
	c-0.29,0.732-0.605,1.337-0.945,1.813l-0.051,0.359c-0.103,0.137-0.205,0.358-0.307,0.664c-0.102,0.307-0.205,0.58-0.307,0.818
	c-0.273,0.408-0.511,0.825-0.715,1.252c-0.205,0.426-0.409,0.858-0.613,1.302c-0.205,0.442-0.408,0.878-0.614,1.303
	c-0.203,0.425-0.459,0.826-0.767,1.2c-0.272,0.58-0.477,1.202-0.613,1.865c-0.137,0.664-0.459,1.236-0.972,1.711l0.053,0.255
	c0,0.307-0.077,0.612-0.23,0.921c-0.154,0.307-0.23,0.578-0.23,0.817c0,0.271,0.187,0.409,0.562,0.409
	c0.851-0.682,1.559-1.414,2.121-2.197c0.562-0.784,1.217-1.432,1.966-1.943c0.92-1.157,2.044-2.223,3.373-3.194
	c1.329-0.97,2.52-1.95,3.578-2.938c0.272-0.035,0.511-0.146,0.715-0.333c0.205-0.187,0.409-0.392,0.613-0.614
	c0.205-0.22,0.417-0.417,0.638-0.587c0.222-0.171,0.502-0.255,0.844-0.255c0.205-0.17,0.495-0.299,0.869-0.384
	c0.375-0.084,0.716-0.195,1.021-0.332l0.409-0.052c0.306,0,0.587,0.061,0.844,0.179c0.254,0.121,0.467,0.333,0.638,0.64
	c0,0.612-0.171,1.192-0.512,1.738c-0.34,0.545-0.511,1.142-0.511,1.788c0,0.239,0.018,0.427,0.052,0.562
	c-0.41,0.376-0.657,0.819-0.742,1.329c-0.085,0.512-0.299,0.989-0.639,1.432c-0.205,0.342-0.367,0.715-0.486,1.125
	c-0.119,0.408-0.238,0.816-0.358,1.225c-0.119,0.409-0.263,0.811-0.434,1.201c-0.17,0.393-0.409,0.724-0.714,0.995
	c0.033,0.104,0.05,0.274,0.05,0.512c0,0.512-0.145,1.048-0.434,1.61c-0.29,0.562-0.623,1.032-0.998,1.404
	c0.07,0.274,0.103,0.444,0.103,0.511c0,0.342-0.093,0.64-0.279,0.895c-0.188,0.255-0.282,0.589-0.282,0.996
	c-0.817,1.229-1.474,2.538-1.967,3.937c-0.496,1.396-1.066,2.709-1.713,3.934l-0.562,0.306c-0.444-0.544-0.664-1.191-0.664-1.942
	c0-0.884,0.179-1.779,0.537-2.681c0.357-0.902,0.569-1.694,0.638-2.376c0.17-1.535,0.469-2.862,0.894-3.986s0.876-2.332,1.354-3.628
	c0-0.545,0.136-1.022,0.409-1.432c0.272-0.408,0.426-0.886,0.46-1.431c0.034-0.341,0.153-0.74,0.358-1.201
	c0.204-0.46,0.306-0.878,0.306-1.251c0-0.376-0.137-0.647-0.408-0.818c-0.478,0.171-1.032,0.476-1.662,0.919
	c-0.631,0.443-1.295,0.964-1.993,1.56c-0.698,0.596-1.388,1.243-2.07,1.941c-0.682,0.697-1.277,1.389-1.788,2.07
	c0,0.272-0.06,0.468-0.179,0.587c-0.119,0.119-0.264,0.222-0.434,0.308c-0.171,0.085-0.333,0.188-0.486,0.305
	c-0.153,0.121-0.247,0.282-0.281,0.486c-0.477,0.512-0.929,1.039-1.355,1.585c-0.425,0.545-0.834,1.098-1.226,1.66
	s-0.776,1.107-1.149,1.635c-0.375,0.53-0.767,0.997-1.175,1.405c-0.284,0.086-0.509,0.192-0.697,0.312
	c0.336,0.131,0.68,0.238,1.013,0.378c0.86,1.048,2.125,3.062,3.171,4.755c2.026,2.785,4.486,4.923,7.699,5.945
	c2.918,1.037,5.866,2.456,8.586,0.966C138.633,78.487,141.305,78.73,143.821,77.002z M138.773,60.613
	c-0.295,0.098-0.477,0.255-0.542,0.468c-0.066,0.214-0.099,0.444-0.099,0.69s-0.017,0.493-0.051,0.741
	c-0.032,0.246-0.148,0.436-0.345,0.566c-0.165,0.363-0.33,0.635-0.494,0.816c-0.164,0.18-0.32,0.353-0.468,0.517
	c-0.148,0.163-0.271,0.345-0.37,0.543c-0.098,0.198-0.181,0.494-0.247,0.888c-0.46,0.788-0.838,1.612-1.133,2.468
	c-0.296,0.854-0.774,1.66-1.432,2.416c0.067,0.099,0.1,0.214,0.1,0.347c0,0.229-0.083,0.428-0.247,0.593
	c-0.165,0.164-0.33,0.297-0.494,0.394l-0.049,0.05c-0.428-0.166-0.674-0.461-0.741-0.889c0.165-0.229,0.271-0.468,0.32-0.715
	c0.048-0.247,0.091-0.494,0.124-0.74s0.091-0.485,0.173-0.714c0.082-0.232,0.239-0.445,0.467-0.643
	c0.067-0.561,0.117-1.135,0.148-1.728c0.035-0.592,0.233-1.069,0.593-1.43c0.165-0.362,0.279-0.708,0.346-1.036
	c0.066-0.329,0.14-0.64,0.224-0.938c0.081-0.297,0.188-0.592,0.32-0.89c0.132-0.294,0.347-0.592,0.642-0.889
	c0.099-0.689,0.223-1.282,0.371-1.774c0.147-0.494,0.303-0.963,0.469-1.405c0.165-0.443,0.346-0.914,0.543-1.407
	c0.197-0.493,0.395-1.085,0.592-1.776c0.263-0.198,0.452-0.435,0.567-0.716c0.115-0.277,0.205-0.574,0.271-0.888
	c0.066-0.312,0.141-0.624,0.224-0.937c0.08-0.312,0.221-0.616,0.419-0.912c-0.166-0.033-0.354-0.057-0.569-0.075
	c-0.214-0.016-0.452-0.024-0.715-0.024c-0.264,0-0.493,0.017-0.691,0.049c-0.197,0.033-0.361,0.116-0.493,0.247
	c-0.033-0.131-0.182-0.221-0.445-0.272c-0.262-0.049-0.394-0.205-0.394-0.468c0.066-0.262,0.164-0.461,0.298-0.593
	c0.13-0.131,0.263-0.247,0.393-0.345c0.131-0.099,0.255-0.198,0.37-0.295c0.116-0.1,0.189-0.247,0.222-0.444
	c0.361-0.297,0.822-0.666,1.381-1.11c0.56-0.445,1.218-0.667,1.974-0.667l0.445,0.05c0.362-0.854,0.731-1.793,1.11-2.812
	c0.378-1.019,0.847-1.99,1.407-2.91c0.065,0.031,0.131,0.048,0.197,0.048c0.164,0,0.254-0.107,0.271-0.321s0.091-0.336,0.222-0.371
	c-0.097-0.131-0.147-0.262-0.147-0.395c0-0.229,0.09-0.426,0.271-0.591c0.18-0.165,0.304-0.263,0.369-0.297
	c0.099,0,0.205-0.015,0.32-0.049c0.114-0.033,0.174-0.114,0.174-0.247c-0.132-0.13-0.196-0.295-0.196-0.494
	c0-0.296,0.123-0.582,0.366-0.862c0.248-0.28,0.405-0.585,0.472-0.913c0.23-0.101,0.427-0.198,0.591-0.297
	c0.164-0.1,0.321-0.197,0.469-0.296c0.148-0.099,0.312-0.19,0.494-0.271c0.181-0.081,0.404-0.124,0.667-0.124
	c0.03,0.132,0.165,0.198,0.394,0.198h0.295c0.165,0,0.33,0.024,0.495,0.074c0.164,0.048,0.262,0.205,0.296,0.469
	c0.064-0.034,0.147-0.05,0.245-0.05c0.166,0,0.289,0.074,0.372,0.222c0.081,0.147,0.203,0.255,0.369,0.319
	c-0.197,0.593-0.38,1.161-0.542,1.704c-0.167,0.543-0.428,1.045-0.79,1.504c-0.527,0.856-1.045,1.8-1.555,2.838
	c-0.508,1.035-1.06,1.981-1.652,2.837c0.098,0.46,0.328,0.691,0.689,0.691c0.132,0,0.248-0.017,0.346-0.05l0.099-0.147
	c0.13,0.164,0.311,0.247,0.544,0.247c0.132,0,0.261-0.017,0.394-0.049c0.133-0.034,0.278-0.05,0.444-0.05
	c0.133,0,0.229,0.017,0.297,0.05c0-0.131,0.114-0.198,0.345-0.198h0.443c-0.031,0.033-0.056,0.048-0.073,0.048
	s-0.042,0.018-0.075,0.05c0.065,0.066,0.148,0.1,0.247,0.1h0.198l0.048-0.198l4.195-0.148c0.395-0.033,0.783-0.025,1.158,0.024
	c0.379,0.049,0.799,0.108,1.259,0.173c-0.196,0.593-0.453,1.019-0.766,1.284c-0.312,0.263-0.649,0.46-1.012,0.59
	c-0.363,0.132-0.756,0.255-1.184,0.372c-0.428,0.115-0.871,0.32-1.332,0.616l-0.79,0.395v-0.049c0-0.1-0.065-0.156-0.198-0.173
	c-0.13-0.017-0.229-0.058-0.296-0.124h-0.196c-0.229,0-0.354,0.066-0.369,0.196c-0.018,0.132-0.124,0.281-0.322,0.447h-0.296
	c-0.294,0-0.61,0.042-0.937,0.122c-0.33,0.082-0.684,0.165-1.061,0.248c-0.379,0.083-0.757,0.156-1.136,0.221
	c-0.379,0.066-0.765,0.083-1.158,0.049l-0.643-0.049c-0.032,0.165-0.205,0.247-0.519,0.247c-0.312,0-0.566,0.033-0.765,0.099
	c0,0.263-0.057,0.468-0.173,0.616c-0.115,0.146-0.23,0.279-0.345,0.394c-0.115,0.116-0.23,0.222-0.347,0.322
	c-0.114,0.098-0.173,0.246-0.173,0.444v0.197c-0.396,0.79-0.715,1.406-0.961,1.852c-0.247,0.442-0.552,0.945-0.915,1.504
	l-0.196,0.296v0.1c0,0.362-0.073,0.675-0.222,0.938c-0.147,0.264-0.305,0.501-0.468,0.714c-0.165,0.215-0.329,0.445-0.493,0.691
	C138.854,59.995,138.773,60.283,138.773,60.613z"/>
</svg>
